<?xml version="1.0" encoding="utf-8"?>
<!-- Generator: Adobe Illustrator 24.0.3, SVG Export Plug-In . SVG Version: 6.00 Build 0)  -->
<svg version="1.1" id="Layer_1" xmlns="http://www.w3.org/2000/svg" xmlns:xlink="http://www.w3.org/1999/xlink" x="0px" y="0px"
	 viewBox="0 0 64 64" style="enable-background:new 0 0 64 64;" xml:space="preserve">
<style type="text/css">
	.st0{fill:none;stroke:#001E2D;stroke-width:1.2758;stroke-miterlimit:10;}
	.st1{fill:none;stroke:#001E2D;stroke-width:1.2758;stroke-miterlimit:10;stroke-dasharray:6.0505,3.8096;}
	.st2{fill:none;stroke:#001E2D;stroke-width:1.5;stroke-miterlimit:10;}
</style>
<g>
	<g>
		<g>
			<line class="st0" x1="54.7" y1="7" x2="54.7" y2="10.4"/>
			<line class="st1" x1="54.7" y1="14.2" x2="54.7" y2="51.7"/>
			<line class="st0" x1="54.7" y1="53.6" x2="54.7" y2="57"/>
		</g>
	</g>
	<g>
		<g>
			<line class="st0" x1="7" y1="9" x2="10.4" y2="9"/>
			<line class="st1" x1="14.2" y1="9" x2="51.7" y2="9"/>
			<line class="st0" x1="53.6" y1="9" x2="57" y2="9"/>
		</g>
	</g>
	<g>
		<g>
			<line class="st0" x1="7" y1="55" x2="10.4" y2="55"/>
			<line class="st1" x1="14.2" y1="55" x2="51.7" y2="55"/>
			<line class="st0" x1="53.6" y1="55" x2="57" y2="55"/>
		</g>
	</g>
	<g>
		<g>
			<line class="st0" x1="9.3" y1="57" x2="9.3" y2="53.6"/>
			<line class="st1" x1="9.3" y1="49.8" x2="9.3" y2="12.3"/>
			<line class="st0" x1="9.3" y1="10.4" x2="9.3" y2="7"/>
		</g>
	</g>
</g>
<path class="st2" d="M27.4,15.6h18.3v10h-3.4v-3.4h-6.9v23.1h3.4v3.2H25.1v-3.2h3.4V22.2h-6.9v3.4h-3.4v-10H23"/>
</svg>
