<?xml version="1.0" encoding="utf-8"?>
<!-- Generator: Adobe Illustrator 24.0.3, SVG Export Plug-In . SVG Version: 6.00 Build 0)  -->
<svg version="1.1" id="Layer_1" xmlns="http://www.w3.org/2000/svg" xmlns:xlink="http://www.w3.org/1999/xlink" x="0px" y="0px"
	 viewBox="0 0 64 64" style="enable-background:new 0 0 64 64;" xml:space="preserve">
<style type="text/css">
	.st0{fill:#001E2D;}
</style>
<g>
	<path class="st0" d="M7,30.1c0.2-1,0.5-2,1-2.8c1.3-2,3.1-3.2,5.5-3.2c3.4-0.1,6.7,0,10.1,0c0.6,0,1.1,0.4,1.1,1c0,0.6-0.4,1-1.1,1
		c-3.1,0-6.2,0-9.3,0C11,26,9,28,9,31.2c0,4.8,0,9.6,0,14.4c0,3.1,2.1,5.2,5.2,5.2c1.9,0,3.9,0,5.8,0c0.5,0,0.8,0.2,1.1,0.5
		c0.7,0.8,1.5,1.5,2.3,2.3c0-0.6,0-1.1,0-1.6c0-0.9,0.4-1.2,1.2-1.2c3.3,0,6.7,0,10,0c3,0,5.2-2.1,5.2-5.1c0-2,0-4.1,0-6.1
		c0-0.2,0-0.4,0-0.6c0.1-0.5,0.5-0.8,0.9-0.8c0.4,0,0.8,0.3,0.9,0.7c0,0.1,0,0.3,0,0.4c0,2.2,0,4.4,0,6.5c0,3.3-2.2,6-5.4,6.7
		c-0.5,0.1-1.1,0.2-1.6,0.1c-2.9,0-5.9,0-8.8,0c-0.4,0-0.5,0.1-0.5,0.5c0,0.8,0,1.7,0,2.5c0,0.6-0.2,1-0.7,1.3c-0.2,0-0.4,0-0.6,0
		c-0.4-0.3-0.7-0.6-1-0.9c-1-1-2.1-2.1-3.1-3.1c-0.2-0.2-0.4-0.3-0.7-0.3c-1.9,0-3.8,0.1-5.7,0c-2.4-0.1-4.2-1.2-5.5-3.2
		c-0.6-0.9-0.8-1.8-1-2.8C7,41.1,7,35.6,7,30.1z"/>
	<path class="st0" d="M41.5,7c2.2-0.1,4.2,0.1,6.1,0.8c4.7,1.8,7.8,5.1,9,10c1.3,5.4-0.2,10-4.2,13.8c-0.4,0.4-0.7,0.8-0.6,1.4
		c0,1.5,0,3,0,4.5c0,0.5-0.1,0.9-0.6,1.1c-0.5,0.2-0.9,0-1.3-0.4c-1-1-2.1-2.1-3.1-3.1C46.5,35,46.3,35,46,35
		c-3.2,0.6-6.3,0.7-9.5-0.2c-3.4-0.9-6.1-2.9-8-5.9c-1.8-2.7-2.6-5.8-2.2-9c0.4-4,2.2-7.3,5.3-9.8C34.5,7.7,37.9,6.8,41.5,7z
		 M49.8,35.5c0-1.2,0-2.2,0-3.2c0-0.7,0.2-1.3,0.8-1.7c1.8-1.4,3.1-3.2,3.8-5.3c1.3-3.8,0.9-7.5-1.3-10.8c-1.9-3-4.7-4.7-8.2-5.3
		c-2-0.3-4-0.3-5.9-0.1c-1.2,0.1-2.4,0.5-3.5,1c-3.9,1.9-6.4,5-7,9.3c-0.7,4.6,0.9,8.4,4.5,11.4c2,1.7,4.4,2.5,7,2.6
		c2.1,0.1,4.3,0.2,6.4-0.4c0.6-0.2,1,0,1.4,0.4C48.3,34.1,49,34.8,49.8,35.5z"/>
	<path class="st0" d="M23.6,37.3c3.3,0,6.6,0,9.9,0c0.2,0,0.3,0,0.5,0c0.5,0.1,0.9,0.5,0.9,1c0,0.5-0.4,0.9-0.9,1
		c-0.2,0-0.3,0-0.5,0c-6.6,0-13.2,0-19.8,0c0,0-0.1,0-0.1,0c-0.8,0-1.3-0.4-1.3-1c0-0.6,0.5-1,1.3-1C16.9,37.3,20.2,37.3,23.6,37.3z
		"/>
	<path class="st0" d="M21.7,42.7c2.7,0,5.3,0,8,0c0.2,0,0.5,0,0.7,0.1c0.4,0.2,0.6,0.5,0.6,0.9c0,0.4-0.2,0.8-0.7,0.9
		c-0.2,0.1-0.4,0.1-0.7,0.1c-5.3,0-10.7,0-16,0c0,0-0.1,0-0.1,0c-0.7,0-1.2-0.4-1.2-1c0-0.6,0.5-1,1.2-1
		C16.2,42.7,19,42.7,21.7,42.7z"/>
	<path class="st0" d="M20.4,31.8c2.3,0,4.5,0,6.8,0c0.2,0,0.4,0,0.6,0.1c0.4,0.1,0.7,0.5,0.7,0.9c0,0.4-0.3,0.8-0.7,0.9
		c-0.2,0.1-0.4,0.1-0.6,0.1c-4.5,0-9.1,0-13.6,0c-0.2,0-0.3,0-0.5,0c-0.5-0.1-0.8-0.5-0.8-1c0-0.4,0.3-0.8,0.8-0.9
		c0.2,0,0.4,0,0.5,0C15.9,31.8,18.1,31.8,20.4,31.8z"/>
	<path class="st0" d="M33.8,42.8c0.5,0,1,0.4,1,1c0,0.5-0.4,1-1,1c-0.5,0-1-0.4-1-1C32.9,43.2,33.3,42.8,33.8,42.8z"/>
	<path class="st0" d="M40.9,23c0-0.4,0-0.7,0-1.1c0-0.8,0.5-1.4,1.3-1.7c0.2-0.1,0.3-0.1,0.5-0.2c1-0.4,1.6-1.4,1.4-2.4
		c-0.2-1-1.1-1.8-2.2-1.8c-1.1,0-1.9,0.8-2.1,1.9c-0.1,0.9-0.5,1.3-1.2,1.2c-0.6-0.1-0.9-0.5-0.8-1.4c0.1-1.5,1.3-2.9,2.7-3.4
		c1.6-0.5,3.3-0.1,4.4,1.1c2,2.3,1.2,5.6-1.7,6.7c-0.3,0.1-0.4,0.2-0.3,0.5c0,0.6,0,1.2,0,1.9c0,0.6-0.5,1.1-1,1
		c-0.5,0-0.9-0.4-0.9-1.1c0-0.1,0-0.3,0-0.4C40.9,23.5,40.9,23.3,40.9,23C40.9,23,40.9,23,40.9,23z"/>
	<path class="st0" d="M42.8,28.1c0,0.5-0.4,1-0.9,1c-0.5,0-1-0.4-1-0.9c0-0.5,0.4-1,0.9-1C42.3,27.2,42.8,27.6,42.8,28.1z"/>
</g>
</svg>
