<?xml version="1.0" encoding="utf-8"?>
<!-- Generator: Adobe Illustrator 24.0.3, SVG Export Plug-In . SVG Version: 6.00 Build 0)  -->
<svg version="1.1" id="Layer_1" xmlns="http://www.w3.org/2000/svg" xmlns:xlink="http://www.w3.org/1999/xlink" x="0px" y="0px"
	 viewBox="0 0 512 512" style="enable-background:new 0 0 512 512;" xml:space="preserve">
<style type="text/css">
	.st0{fill:#30ADC0;}
	.st1{fill:#FFFFFF;}
	.st2{fill:#FFFFFF;stroke:#FFFFFF;stroke-miterlimit:10;}
	.st3{fill:none;stroke:#E5E5E5;stroke-width:0.9562;stroke-linecap:round;stroke-linejoin:round;stroke-miterlimit:10;}
	.st4{fill:#E5E5E5;stroke:#E5E5E5;stroke-width:0.9562;stroke-linecap:round;stroke-linejoin:round;stroke-miterlimit:10;}
	.st5{fill:#001E2D;stroke:#001E2D;stroke-width:0.9562;stroke-miterlimit:10;}
	.st6{fill:#FFFFFF;stroke:#001E2D;stroke-width:0.9562;stroke-linecap:round;stroke-linejoin:round;stroke-miterlimit:10;}
	.st7{fill:none;stroke:#001E2D;stroke-width:0.9562;stroke-miterlimit:10;}
	.st8{fill:#E5E5E5;stroke:#001E2D;stroke-width:0.9562;stroke-linecap:round;stroke-linejoin:round;stroke-miterlimit:10;}
	.st9{fill:#CCCCCC;stroke:#001E2D;stroke-width:0.9562;stroke-miterlimit:10;}
	.st10{fill:#E5E5E5;stroke:#001E2D;stroke-width:0.9562;stroke-miterlimit:10;}
	.st11{fill:#30ADC0;stroke:#001E2D;stroke-width:0.9562;stroke-linecap:round;stroke-linejoin:round;stroke-miterlimit:10;}
	.st12{fill:none;stroke:#001E2D;stroke-width:0.9562;stroke-linecap:round;stroke-linejoin:round;stroke-miterlimit:10;}
	.st13{fill:#5AE4A7;stroke:#001E2D;stroke-width:0.9562;stroke-linecap:round;stroke-linejoin:round;stroke-miterlimit:10;}
	.st14{fill:#001E2D;stroke:#001E2D;stroke-width:0.9562;stroke-linecap:round;stroke-linejoin:round;stroke-miterlimit:10;}
	.st15{fill:#30ADC0;stroke:#001E2D;stroke-width:0.9562;stroke-miterlimit:10;}
	.st16{fill:#FFFFFF;stroke:#001E2D;stroke-width:0.9562;stroke-miterlimit:10;}
	.st17{fill:#001E2D;}
	.st18{fill:none;stroke:#001E2D;stroke-width:1.2749;stroke-linecap:round;stroke-miterlimit:10;}
	.st19{fill:none;stroke:#001E2D;stroke-width:1.2749;stroke-miterlimit:10;}
</style>
<title></title>
<g>
	<g>
		<path class="st0" d="M417.8,59c0,0-57.9-42.7-131.9-19.2s-104.1,87.1-146,132c-21.9,23.4-54.8,33.2-81,51.7
			C-25,282.6-10.4,406,55.7,449.7c57.3,37.9,128,38.9,219.5,4.9S432.4,399.4,488,311.3S489.2,117.4,417.8,59z"/>
		<path class="st1" d="M417.8,59c0,0-57.9-42.7-131.9-19.2s-104.1,87.1-146,132c-21.9,23.4-54.8,33.2-81,51.7
			C-25,282.6-10.4,406,55.7,449.7c57.3,37.9,128,38.9,219.5,4.9S432.4,399.4,488,311.3S489.2,117.4,417.8,59z"/>
	</g>
	<g>
		<path class="st2" d="M417.8,59c0,0-57.9-42.7-131.9-19.2s-104.1,87.1-146,132c-21.9,23.4-54.8,33.2-81,51.7
			C-25,282.6-10.4,406,55.7,449.7c57.3,37.9,128,38.9,219.5,4.9S432.4,399.4,488,311.3S489.2,117.4,417.8,59z"/>
	</g>
	<g>
		<polygon class="st3" points="71.6,144.6 20.8,144.6 20.8,81.3 64,81.3 71.6,87.7 		"/>
		<polygon class="st3" points="64,81.3 64,87.8 71.6,87.8 		"/>
		<rect x="10.9" y="86.7" class="st4" width="37.9" height="13.8"/>
		<line class="st3" x1="26.5" y1="104.4" x2="67.3" y2="104.4"/>
		<line class="st3" x1="26.5" y1="112" x2="67.3" y2="112"/>
		<line class="st3" x1="26.5" y1="119.5" x2="67.3" y2="119.5"/>
		<line class="st3" x1="26.5" y1="127.2" x2="67.3" y2="127.2"/>
		<line class="st3" x1="26.5" y1="134.8" x2="67.3" y2="134.8"/>
		<g>
			<path class="st1" d="M22.5,98.5v-9h-1.8v-1h4.8v1h-1.8v9H22.5z"/>
			<path class="st1" d="M28.6,94.1L27,98.5h-1l2-5.2l-1.9-4.9h1.2l1.5,4l1.6-4h1l-1.9,4.9l2,5.2h-1.2L28.6,94.1z"/>
			<path class="st1" d="M33.8,98.5v-9H32v-1h4.8v1h-1.9v9H33.8z"/>
		</g>
	</g>
	<g>
		<polygon class="st3" points="484.7,284 433.9,284 433.9,220.6 477.1,220.6 484.7,226.9 		"/>
		<polygon class="st3" points="477.1,220.6 477.1,227 484.7,227 		"/>
		<rect x="424.1" y="225.9" class="st4" width="37.9" height="13.8"/>
		<line class="st3" x1="439.6" y1="243.7" x2="480.4" y2="243.7"/>
		<line class="st3" x1="439.6" y1="251.3" x2="480.4" y2="251.3"/>
		<line class="st3" x1="439.6" y1="258.9" x2="480.4" y2="258.9"/>
		<line class="st3" x1="439.6" y1="266.5" x2="480.4" y2="266.5"/>
		<line class="st3" x1="439.6" y1="274" x2="480.4" y2="274"/>
		<g>
			<path class="st1" d="M435.6,237.8v-9h-1.8v-1h4.8v1h-1.8v9H435.6z"/>
			<path class="st1" d="M441.8,233.5l-1.7,4.3H439l2-5.2l-1.9-4.9h1.2l1.5,4l1.6-4h1l-1.9,4.9l2,5.2h-1.2L441.8,233.5z"/>
			<path class="st1" d="M447,237.8v-9h-1.8v-1h4.8v1h-1.8v9H447z"/>
		</g>
	</g>
	<g>
		<polygon class="st3" points="318.8,392.1 268,392.1 268,328.8 311.2,328.8 318.8,335.1 		"/>
		<polygon class="st3" points="311.2,328.8 311.2,335.2 318.8,335.2 		"/>
		<rect x="258.1" y="334.1" class="st4" width="37.9" height="13.8"/>
		<line class="st3" x1="273.7" y1="351.9" x2="314.5" y2="351.9"/>
		<line class="st3" x1="273.7" y1="359.5" x2="314.5" y2="359.5"/>
		<line class="st3" x1="273.7" y1="367" x2="314.5" y2="367"/>
		<line class="st3" x1="273.7" y1="374.6" x2="314.5" y2="374.6"/>
		<line class="st3" x1="273.7" y1="382.2" x2="314.5" y2="382.2"/>
		<g>
			<path class="st1" d="M269.7,345.9v-9h-1.8v-1h4.8v1h-1.8v9H269.7z"/>
			<path class="st1" d="M275.9,341.6l-1.7,4.3h-1.1l2-5.2l-1.9-4.9h1.2l1.5,4l1.6-4h1l-1.9,4.9l2,5.2h-1.2L275.9,341.6z"/>
			<path class="st1" d="M281,345.9v-9h-1.8v-1h4.8v1h-1.8v9H281z"/>
		</g>
	</g>
	<g>
		<polygon class="st3" points="92.6,298.3 24.3,298.3 24.3,213 82.4,213 92.6,221.5 		"/>
		<polygon class="st3" points="82.4,213 82.4,221.6 92.6,221.6 		"/>
		<rect x="10.9" y="220.1" class="st4" width="51" height="18.6"/>
		<line class="st3" x1="31.8" y1="244.1" x2="86.8" y2="244.1"/>
		<line class="st3" x1="31.8" y1="254.3" x2="86.8" y2="254.3"/>
		<line class="st3" x1="31.8" y1="264.6" x2="86.8" y2="264.6"/>
		<line class="st3" x1="31.8" y1="274.7" x2="86.8" y2="274.7"/>
		<line class="st3" x1="31.8" y1="285" x2="86.8" y2="285"/>
		<g>
			<path class="st1" d="M27.5,222.7c2.1,0,3,1.3,3,3.3v1.6c0,2.1-1,3.3-3.1,3.3h-1.3v5.3h-1.5v-13.4L27.5,222.7L27.5,222.7z
				 M27.3,229.5c1.1,0,1.7-0.5,1.7-1.8v-1.8c0-1.2-0.4-1.9-1.5-1.9h-1.4v5.5H27.3z"/>
			<path class="st1" d="M34.9,222.7c2.1,0,3.1,1.3,3.1,3.4v6.8c0,2.1-1,3.3-3.1,3.3h-3.2v-13.4h3.2V222.7z M34.9,234.8
				c1.1,0,1.6-0.7,1.6-1.9V226c0-1.2-0.5-1.9-1.6-1.9h-1.6v10.8L34.9,234.8L34.9,234.8z"/>
			<path class="st1" d="M44,229v1.4h-3.1v5.8h-1.5v-13.4h5.4v1.4h-3.9v4.9L44,229L44,229z"/>
		</g>
	</g>
	<g>
		<polygon class="st3" points="64.5,415 30.8,415 30.8,372.9 59.5,372.9 64.5,377.1 		"/>
		<polygon class="st3" points="59.5,372.9 59.5,377.2 64.5,377.2 		"/>
		<rect x="24.3" y="376.5" class="st4" width="25.2" height="9.2"/>
		<line class="st3" x1="34.5" y1="388.3" x2="61.7" y2="388.3"/>
		<line class="st3" x1="34.5" y1="393.3" x2="61.7" y2="393.3"/>
		<line class="st3" x1="34.5" y1="398.3" x2="61.7" y2="398.3"/>
		<line class="st3" x1="34.5" y1="403.4" x2="61.7" y2="403.4"/>
		<line class="st3" x1="34.5" y1="408.4" x2="61.7" y2="408.4"/>
		<g>
			<path class="st1" d="M32.4,377.7c1,0,1.5,0.6,1.5,1.6v0.8c0,1.1-0.5,1.6-1.5,1.6h-0.7v2.6h-0.8v-6.7L32.4,377.7L32.4,377.7z
				 M32.3,381.1c0.6,0,0.8-0.3,0.8-0.9v-0.9c0-0.6-0.2-0.9-0.8-0.9h-0.7v2.7L32.3,381.1L32.3,381.1z"/>
			<path class="st1" d="M36.1,377.7c1,0,1.5,0.6,1.5,1.7v3.4c0,1-0.5,1.6-1.5,1.6h-1.6v-6.7H36.1z M36.1,383.7
				c0.5,0,0.8-0.3,0.8-0.9v-3.4c0-0.6-0.3-0.9-0.8-0.9h-0.8v5.3L36.1,383.7L36.1,383.7z"/>
			<path class="st1" d="M40.5,380.8v0.7H39v2.9h-0.7v-6.7h2.6v0.7H39v2.4H40.5z"/>
		</g>
	</g>
	<g>
		<polygon class="st3" points="492.9,103 459.1,103 459.1,61 487.8,61 492.9,65.2 		"/>
		<polygon class="st3" points="487.8,61 487.8,65.2 492.9,65.2 		"/>
		<rect x="452.6" y="64.5" class="st4" width="25.2" height="9.2"/>
		<line class="st3" x1="462.9" y1="76.3" x2="490" y2="76.3"/>
		<line class="st3" x1="462.9" y1="81.3" x2="490" y2="81.3"/>
		<line class="st3" x1="462.9" y1="86.4" x2="490" y2="86.4"/>
		<line class="st3" x1="462.9" y1="91.4" x2="490" y2="91.4"/>
		<line class="st3" x1="462.9" y1="96.4" x2="490" y2="96.4"/>
		<g>
			<path class="st1" d="M460.8,65.8c1,0,1.5,0.6,1.5,1.6v0.8c0,1.1-0.5,1.6-1.5,1.6h-0.7v2.6h-0.7v-6.6H460.8z M460.7,69
				c0.6,0,0.8-0.3,0.8-0.9v-0.9c0-0.6-0.2-0.9-0.8-0.9H460V69H460.7z"/>
			<path class="st1" d="M464.4,65.8c1,0,1.5,0.6,1.5,1.7v3.3c0,1-0.5,1.6-1.5,1.6h-1.6v-6.6H464.4z M464.4,71.6
				c0.5,0,0.8-0.3,0.8-0.9v-3.4c0-0.6-0.3-0.9-0.8-0.9h-0.8v5.3L464.4,71.6L464.4,71.6z"/>
			<path class="st1" d="M468.9,68.8v0.7h-1.5v2.9h-0.7v-6.7h2.6v0.7h-1.9v2.4H468.9z"/>
		</g>
	</g>
	<g>
		<rect x="76.3" y="44.5" class="st5" width="356.9" height="278.9"/>
		<g>
			<g>
				<rect x="87.8" y="33.6" class="st0" width="358" height="279.6"/>
				<rect x="87.8" y="33.6" class="st6" width="358" height="279.6"/>
				<g>
					<rect x="97.6" y="73.2" class="st6" width="75.8" height="48"/>
					<line class="st7" x1="118.4" y1="94" x2="150.4" y2="94"/>
					<line class="st7" x1="110.4" y1="102" x2="163.2" y2="102"/>
				</g>
				<g>
					<rect x="97.6" y="130.3" class="st6" width="75.8" height="48"/>
					<g>
						<line class="st7" x1="105.4" y1="141.7" x2="132" y2="141.7"/>
						<line class="st7" x1="105.4" y1="148" x2="132" y2="148"/>
						<line class="st7" x1="105.4" y1="154.4" x2="132" y2="154.4"/>
						<line class="st7" x1="105.4" y1="160.8" x2="132" y2="160.8"/>
						<line class="st7" x1="105.4" y1="167.2" x2="132" y2="167.2"/>
					</g>
					<g>
						<line class="st7" x1="138.4" y1="141.7" x2="164.9" y2="141.7"/>
						<line class="st7" x1="138.4" y1="148" x2="164.9" y2="148"/>
						<line class="st7" x1="138.4" y1="154.4" x2="164.9" y2="154.4"/>
						<line class="st7" x1="138.4" y1="160.8" x2="164.9" y2="160.8"/>
						<line class="st7" x1="138.4" y1="167.2" x2="164.9" y2="167.2"/>
					</g>
				</g>
				<g>
					<rect x="97.6" y="187.4" class="st6" width="75.8" height="48"/>
					<g>
						<line class="st7" x1="105.4" y1="198.7" x2="132" y2="198.7"/>
						<line class="st7" x1="105.4" y1="205.1" x2="132" y2="205.1"/>
						<line class="st7" x1="105.4" y1="211.5" x2="132" y2="211.5"/>
						<line class="st7" x1="105.4" y1="217.8" x2="132" y2="217.8"/>
						<line class="st7" x1="105.4" y1="224.2" x2="132" y2="224.2"/>
					</g>
					<g>
						<line class="st7" x1="138.4" y1="198.7" x2="164.9" y2="198.7"/>
						<line class="st7" x1="138.4" y1="205.1" x2="164.9" y2="205.1"/>
						<line class="st7" x1="138.4" y1="211.5" x2="164.9" y2="211.5"/>
						<line class="st7" x1="138.4" y1="217.8" x2="164.9" y2="217.8"/>
						<line class="st7" x1="138.4" y1="224.2" x2="164.9" y2="224.2"/>
					</g>
				</g>
				<g>
					<rect x="97.6" y="244.4" class="st6" width="75.8" height="48"/>
					<g>
						<line class="st7" x1="105.4" y1="255.8" x2="132" y2="255.8"/>
						<line class="st7" x1="105.4" y1="262.2" x2="132" y2="262.2"/>
						<line class="st7" x1="105.4" y1="268.5" x2="132" y2="268.5"/>
						<line class="st7" x1="105.4" y1="274.9" x2="132" y2="274.9"/>
						<line class="st7" x1="105.4" y1="281.3" x2="132" y2="281.3"/>
					</g>
					<g>
						<line class="st7" x1="138.4" y1="255.8" x2="164.9" y2="255.8"/>
						<line class="st7" x1="138.4" y1="262.2" x2="164.9" y2="262.2"/>
						<line class="st7" x1="138.4" y1="268.5" x2="164.9" y2="268.5"/>
						<line class="st7" x1="138.4" y1="274.9" x2="164.9" y2="274.9"/>
						<line class="st7" x1="138.4" y1="281.3" x2="164.9" y2="281.3"/>
					</g>
				</g>
				<rect x="184" y="33.6" class="st8" width="261.7" height="279.6"/>
				<rect x="191.5" y="86.6" class="st6" width="236.8" height="161.2"/>
				<line class="st7" x1="246.5" y1="150.5" x2="376.5" y2="150.5"/>
				<line class="st7" x1="228.8" y1="164.7" x2="394.2" y2="164.7"/>
			</g>
			<rect x="436.5" y="33.6" class="st9" width="9.3" height="279.6"/>
			<rect x="436.5" y="120.2" class="st10" width="9.3" height="75.5"/>
			<rect x="87.8" y="33.6" class="st11" width="358" height="18.1"/>
			<rect x="111.4" y="36.7" class="st1" width="230.1" height="10.3"/>
			<g>
				<line class="st7" x1="428.3" y1="58.2" x2="410.5" y2="58.2"/>
				<line class="st7" x1="428.3" y1="63.7" x2="410.5" y2="63.7"/>
				<line class="st7" x1="428.3" y1="69.1" x2="410.5" y2="69.1"/>
			</g>
		</g>
	</g>
	<g>
		<g>
			<line class="st12" x1="449.7" y1="427.4" x2="454" y2="415.1"/>
			<line class="st12" x1="450" y1="394" x2="450" y2="440.1"/>
			<g>
				<path class="st13" d="M442.9,417.9c0,0-6.4-7-12.8-5.9c-6.4,1.2-9.4,8.8-9.4,13.4s6.4,19.8,6.4,19.8s4.7-5.3,15.1-12.8
					C452.8,424.9,453.4,417.3,442.9,417.9z"/>
				<path class="st12" d="M442.9,417.9c0,0-8.2,4.1-12.8,13.4"/>
			</g>
			<g>
				<path class="st13" d="M453.3,409.7c0,0,5.3-5.8,10.6-4.8c5.3,1,7.7,7.3,7.7,11.1c0,3.9-5.3,16.3-5.3,16.3s-3.8-4.4-12.5-10.6
					C445.2,415.5,444.7,409.2,453.3,409.7z"/>
				<path class="st12" d="M453.3,409.7c0,0,6.7,3.4,10.6,11.1"/>
			</g>
			<line class="st12" x1="449.1" y1="402" x2="457.1" y2="390.3"/>
			<g>
				<path class="st13" d="M447.8,398.6c0,0-0.1-7.8-4.7-10.6c-4.6-2.8-10.6,0.3-13,3.2c-2.6,2.9-6.9,15.7-6.9,15.7s5.8-0.7,16.3,0.4
					C450.1,408.4,454.5,404,447.8,398.6z"/>
				<path class="st12" d="M447.8,398.6c0,0-7.3-2-15.2,1.3"/>
			</g>
			<g>
				<path class="st13" d="M454.6,388.2c0,0,0.1-5.8,3.5-7.8c3.4-2.1,7.8,0.2,9.7,2.3c1.9,2.1,5.1,11.6,5.1,11.6s-4.2-0.5-12.1,0.3
					C452.9,395.3,449.7,392.1,454.6,388.2z"/>
				<path class="st12" d="M454.6,388.2c0,0,5.4-1.4,11.3,0.9"/>
			</g>
		</g>
		<polygon class="st6" points="469.6,436.1 428.2,436.1 432.4,479.2 465.4,479.2 		"/>
		<g>
			<path class="st14" d="M458.6,454.9c0,1,0.8,1.9,1.9,1.9c1,0,1.9-0.8,1.9-1.9c0-1-0.8-1.9-1.9-1.9
				C459.5,453,458.6,453.8,458.6,454.9z"/>
			<path class="st14" d="M451.8,454.9c0,1,0.8,1.9,1.9,1.9c1,0,1.9-0.8,1.9-1.9c0-1-0.8-1.9-1.9-1.9
				C452.6,453,451.8,453.8,451.8,454.9z"/>
			<polygon class="st14" points="429.6,450.2 468.3,450.2 468.4,448.4 429.4,448.4 			"/>
			<polygon class="st14" points="466.6,467.2 467.4,459.2 430.4,459.2 431.2,467.2 			"/>
			<path class="st14" d="M465.4,454.9c0,1,0.8,1.9,1.9,1.9c0.1,0,0.2,0,0.3,0l0.3-3.6c-0.2-0.1-0.4-0.1-0.7-0.1
				C466.3,453,465.4,453.8,465.4,454.9z"/>
			<path class="st14" d="M445.1,454.9c0,1,0.8,1.9,1.9,1.9s1.9-0.8,1.9-1.9c0-1-0.8-1.9-1.9-1.9S445.1,453.8,445.1,454.9z"/>
			<path class="st14" d="M431.4,454.9c0,1,0.8,1.9,1.9,1.9s1.9-0.8,1.9-1.9c0-1-0.8-1.9-1.9-1.9C432.2,453,431.4,453.8,431.4,454.9z
				"/>
			<path class="st14" d="M438.2,454.9c0,1,0.8,1.9,1.9,1.9c1,0,1.9-0.8,1.9-1.9c0-1-0.8-1.9-1.9-1.9
				C439.1,453,438.2,453.8,438.2,454.9z"/>
		</g>
	</g>
	<g>
		<g>
			<path class="st15" d="M167.2,479.3c5.1-6.3,14.2-17.4,17.4-20.4c4.5-4.2,8.6-9.3,8.6-9.3s-5.4,10.5,3.8,18.7
				c9.3,8.3,36.6,1.9,42.6-2.6s6.7-15.9,1.3-32.8c-5.4-16.8-13-48-12.7-58.9s-6.7-41.3-9.9-49.6s-16.2-14.3-29.6-17.1
				c-13.3-2.9-49.3,12.1-49.3,12.1l-7.3,2.9c0,0-29.9,16.5-37.8,23.2c-8,6.7-4.2,25.1-6.1,42.9s-1.9,38.4-1.9,38.4
				S67.9,443,54.5,461.5c-6.5,8.9-10.2,14.2-12.3,17.5h124.9L167.2,479.3L167.2,479.3z"/>
			<path class="st16" d="M232.8,444.8c0,0-10.7-2.5-21.8,5c-11.3,7.5-8.2,18.7,1.9,21.2c10,2.5,23.1,2.5,30-8.2
				C249.7,452.3,237.8,444.2,232.8,444.8z"/>
			<path class="st16" d="M235.4,444.7c0,0-8.3-2-17,3.9c-8.8,5.9-6.4,14.6,1.5,16.5c7.8,2,18,2,23.4-6.4
				C248.7,450.6,239.4,444.2,235.4,444.7z"/>
			<path class="st7" d="M210.8,373.6c0.4-5.8,0.6-9.8,0.6-10.1"/>
			<path class="st7" d="M193.2,449.7c0,0,11.5-11.2,13.3-23.8c1.2-7.9,2.7-29.2,3.7-44.7"/>
			<path class="st7" d="M224.3,395.2c-2.9,9.3-8.2,23.2-16.4,32.6"/>
			<path class="st7" d="M226.9,385.5c0,0-0.5,2.1-1.4,5.6"/>
			<path class="st7" d="M226,421.7c-4.3,4.8-10.9,11.3-19.7,16.2"/>
			<path class="st7" d="M231.4,414.8c0,0-1.3,2-3.8,5.1"/>
			<path class="st7" d="M242.5,441.7c0,0-14.6-5.4-32.5,0.6c-17.8,6.1-15.9,19.7-14.3,21.9"/>
		</g>
		<path class="st5" d="M194.3,220.1c0,0,0-3.8-5.2-11.8s-31.4-4.7-40.2,4.2c-8.9,8.9,3.8,20.1-1.9,26.7c-5.6,6.6-24.4,3.3-30.5,15
			c-6.1,11.8,9.4,17.3,12.6,21.5c3.3,4.2-5.6,5.6-4.7,9.9s15.4,4.7,15.4,4.7s-9.4,2.8-4.7,6.6c4.7,3.8,13.1,7.5,22.5,7.1
			c9.4-0.5,7.1-18.7,6.1-32.4c-0.9-13.5,11.3-28.6,25.3-27.2s29.1,17.3,26.7,24.4s3.8-1.4,16.4-9.4c12.6-8,7.1-24.4,4.2-27.6
			c-2.8-3.3-12.2-4.2-14-10.3c-1.9-6.1-6.1-12.2-14-12.2C200.4,209.4,202.2,219.6,194.3,220.1z"/>
		<path class="st16" d="M154.1,304.4c0,0-6.1,1.6-8.6,4.8c-2.6,3.2-12.7,8.9-13.3,13.3c-0.6,4.5,3.2,27.4,10.9,36.6
			c7.7,9.3,11.5,9.9,11.5,9.9s2.2-8.9,3.8-9.6c1.6-0.6,16.2,8.6,16.2,8.6s2.6-14.9,4.2-14.9c1.6,0,6.7,5.1,6.7,5.1
			s1.9-12.7,0.6-22.6c-1.3-9.9-9.6-21.9-15.5-26.1C164.3,305.3,159.5,301.5,154.1,304.4z"/>
		<path class="st16" d="M157.2,292.2l-11.8,28.2c0,0,3,13,7,21.5c5.4,11.5,18.8,16.9,18.8,16.9s-0.5-9.9,4.2-19.2
			c4.7-9.4,9.4-15.4,9.4-15.4S163.8,303.5,157.2,292.2z"/>
		<path class="st5" d="M160.2,302.9c0,0,5.4,30.8,13,40.4l7.3-13.8l-19.1-30L160.2,302.9z"/>
		<path class="st16" d="M155.7,394.3c0,0,18.7-49,21.3-51.8c2.6-2.9,8.3-8,10.9-11.5c2.6-3.5,9.6-12.5,12.1-12.5
			c2.6,0,8.6,2.2,11.5,2.9c2.9,0.6,4.8,1.6,5.1,6.4s-3.8,5.1-3.8,5.1l-1.6-1.9c0,0-11.5,17.1-14.9,19.4c-3.5,2.2-6.7,3.2-6.7,3.2
			l-15.2,57L155.7,394.3z"/>
		<g>
			<path class="st16" d="M221.9,252.3c0,0,4.5,3.7,1.5,16.3c-3,12.5-3.7,18.9-3.7,26.3s-2.2,17.8-8.6,24.5
				c-6.3,6.7-14,16.3-23.3,15.9c-14.6-0.6-21.8-20.7-26.7-30c-4.8-9.3-6-21.8-6-27.1c0-5.2,0.7-17.4,7.4-26.7s24.8-12.9,32.6-11.9
				C202.9,240.9,212.6,242,221.9,252.3z"/>
			<path class="st5" d="M158.5,285.7c0,0,1.5-5.2,8.2-8.2s10.8-8.2,8.6-12.9c-2.2-4.8-1.1-9.7,8.6-12.3c9.7-2.6,12.3,7.1,21.5,5.6
				c9.3-1.5,11.9-5.2,16.6-3c4.8,2.2,2.6,8.6,2.6,8.6s6-10.8-5.6-23c-11.5-12.3-39.2-16.6-58.6-2.6c-19.2,14-8.2,47-8.2,47
				S153.3,286.5,158.5,285.7z"/>
			<polyline class="st7" points="204.8,291.9 203.7,313.5 196,310.5 			"/>
			<path class="st7" d="M199,321.2c0,0-7.4,1.1-10.8-4.1"/>
			<path class="st17" d="M190.7,291.8c-0.3,2.1-1.5,3.7-2.6,3.5s-1.7-2.1-1.4-4.2s1.5-3.7,2.6-3.5
				C190.5,287.8,191.1,289.7,190.7,291.8z"/>
			<path class="st17" d="M214.5,292.3c-0.3,2.1-1.5,3.7-2.6,3.5s-1.7-2.1-1.4-4.2s1.5-3.7,2.6-3.5
				C214.2,288.4,214.8,290.3,214.5,292.3z"/>
			<path class="st18" d="M181.2,282.1c0,0,8-7,14.4-1.5"/>
			<path class="st18" d="M209.3,280.5c0,0,5.4-4.6,10.1-0.3"/>
			<g>
				<path class="st19" d="M200.9,286.7c0,0-11.4-1.8-28.8,1c0,0-1.5,11.9,6.7,16.9c8.3,5.2,16.2,0.3,18.2-2.6
					C201.1,296.5,200.9,286.7,200.9,286.7z"/>
				<path class="st19" d="M226.7,285.1c0,0-8.1-1.7-20.6,1c0,0-1.1,11.4,4.8,16.2c5.9,4.9,11.6,0.2,13-2.5
					C226.9,294.5,226.7,285.1,226.7,285.1z"/>
				<path class="st19" d="M200.9,286.7c0,0,1.2-3.3,5.4-0.6"/>
				<line class="st19" x1="154.8" y1="280.8" x2="172" y2="287.8"/>
			</g>
			<path class="st16" d="M160,287.6c0,0-2.6-15.2-9.7-7.8c-7.1,7.4-0.7,14.8,2.6,18.1c3.3,3.3,7.4,0,7.4,0"/>
		</g>
		<g>
			<path class="st15" d="M132.2,362.4c0,0,6.9,12,9.2,27.2c2.2,15.2,1.9,18.1,1.9,18.1l11.2-13.3c0,0,18.1,12.7,21,16.8
				c2.9,4.2,3.2,5.4,3.2,5.4s0,24.8-10.5,39.7c-10.5,14.9-15.5,14.9-25.8,14.9c-10.2,0-23.2-9.6-30.2-25.4
				c-7-15.9-12.7-39.1-13.9-41.3c-1.3-2.2-5.4-14.9-5.4-14.9"/>
			<path class="st7" d="M128,426.4c-1.2,1.4-2.2,2.5-2.9,3.3"/>
			<path class="st7" d="M143.3,407.7c0,0-6,7.5-11.3,13.9"/>
			<path class="st16" d="M144.9,406.1c0,0,8.9,2.2,19.7,8.6c10.9,6.4,11.8,13.3,14.9,10.9c3.2-2.6,5.7-10.5,2.6-14.9
				c-3.2-4.5-13-14.9-20-18.1s-9.9-1.3-12.1,3.5C147.8,400.7,142.7,403.3,144.9,406.1z"/>
			<path class="st7" d="M144.5,432.2c0.2,3.7,0.6,6.9,1.4,9"/>
			<path class="st7" d="M144.9,406.1c0,0-0.8,10.7-0.6,20.6"/>
			<path class="st7" d="M155.7,411.6c0,0,2.2,12.4,4.8,17.8"/>
		</g>
		<g>
			<path class="st16" d="M231,442.3c0,0-10.9,19.1-9.3,21.3c1.6,2.2,36.9,0,36.9,0l1.9-7.7c0,0,7.3,2.9,13,2.9s1.3-1.6-0.6-3.5
				s-13-8.9-13.9-9.6C258.1,445.2,239.7,440.5,231,442.3z"/>
			<path class="st16" d="M254.1,440.2c0,0,5.1-1.5,6.5,1.7c1.4,3.3,0.7,17,0.2,20.6s-2.9,3.4-3.9,0s-3.4-21.8-3.4-21.8L254.1,440.2z
				"/>
			<path class="st16" d="M243.4,441.7c0,0,7.7-5.3,9.9-2.6c2.2,2.7,4.3,24.2,5,25.7s-2.9,2.7-4.3,1.2c-1.4-1.5-5.3-9.4-6.5-12.3
				C246.3,450.9,243.4,441.7,243.4,441.7z"/>
			<path class="st16" d="M228.2,447.5c0,0,4.3-7.9,7.9-10.1c3.6-2.2,7.5,1.9,9.4,5s3.4,11.1,4.3,15c0.9,3.9,3.3,8.4,1.9,8.9
				c-1.4,0.5-6.7-3.9-8.2-6.3s-5.3-11.6-5.3-11.6"/>
			<path class="st16" d="M235.2,462.4c0,0-6.2-6-8.2-7.9s-5-2.7-7-0.5c-2.1,2.2-3.1,5,0,7.9s10.4,6.7,15.1,6.7s3.9-2.4,2.7-3.8
				C236.7,463.4,235.2,462.4,235.2,462.4z"/>
		</g>
	</g>
	<g>
		<rect x="174.5" y="472.8" class="st8" width="223.6" height="6.4"/>
		<rect x="174.5" y="472.8" class="st14" width="78.5" height="6.4"/>
		<path class="st14" d="M246.7,472.8h145.1l8.4-96.5c0.4-4.6-3-8.4-7.6-8.4H264.1c-4.6,0-8.7,3.7-9.1,8.4L246.7,472.8z"/>
		<path class="st8" d="M249.5,472.8h145.1l8.4-96.5c0.4-4.6-3-8.4-7.6-8.4H266.9c-4.6,0-8.7,3.7-9.1,8.4L249.5,472.8z"/>
		<path class="st14" d="M323,417.3c0.4-5,4.9-9.1,9.9-9.1s8.8,4.1,8.3,9.1c-0.4,5-4.9,9.1-9.9,9.1S322.6,422.3,323,417.3z"/>
	</g>
	<line class="st7" x1="508.4" y1="479.2" x2="8.4" y2="479.2"/>
</g>
</svg>
