<?xml version="1.0" encoding="utf-8"?>
<!-- Generator: Adobe Illustrator 24.0.3, SVG Export Plug-In . SVG Version: 6.00 Build 0)  -->
<svg version="1.1" id="Layer_1" xmlns="http://www.w3.org/2000/svg" xmlns:xlink="http://www.w3.org/1999/xlink" x="0px" y="0px"
	 viewBox="0 0 512 512" style="enable-background:new 0 0 512 512;" xml:space="preserve">
<style type="text/css">
	.st0{fill:none;stroke:#001E2D;stroke-width:1.3391;stroke-miterlimit:10;}
	.st1{fill:#5AE4A7;}
	.st2{opacity:0.3;}
	.st3{fill:none;stroke:#000000;stroke-width:1.3391;stroke-linecap:round;stroke-linejoin:round;stroke-miterlimit:10;}
	.st4{fill:#FFFFFF;stroke:#001E2D;stroke-width:1.3391;stroke-linecap:round;stroke-linejoin:round;stroke-miterlimit:10;}
	.st5{fill:#30ADC0;stroke:#001E2D;stroke-width:1.3391;stroke-linecap:round;stroke-linejoin:round;stroke-miterlimit:10;}
	
		.st6{fill:none;stroke:#001E2D;stroke-width:1.3391;stroke-linecap:round;stroke-linejoin:round;stroke-miterlimit:10;stroke-dasharray:2.6781;}
	.st7{fill:none;stroke:#001E2D;stroke-width:1.3391;stroke-linecap:round;stroke-linejoin:round;stroke-miterlimit:10;}
	.st8{fill:#BCDEEE;stroke:#001E2D;stroke-width:1.3391;stroke-linecap:round;stroke-linejoin:round;stroke-miterlimit:10;}
	.st9{fill:#001E2D;stroke:#001E2D;stroke-width:1.3391;stroke-linecap:round;stroke-linejoin:round;stroke-miterlimit:10;}
	.st10{fill:none;stroke:#FFFFFF;stroke-width:1.3391;stroke-linecap:round;stroke-linejoin:round;stroke-miterlimit:10;}
</style>
<title></title>
<g>
	<g>
		<path class="st0" d="M205,511c15.9-7.3,30.7-17.2,45.7-27.4c26.9-18.3,52-29.9,84.3-32.7c22.8-2,45.9-1.6,68.8-3.3
			c30-2.3,63-10.7,82-36.5c22.7-30.9,25.1-80.2,13.6-116c-4.2-13.2-14.4-23.2-19.9-35.5c-0.4-0.9-0.7-1.7-1.1-2.6
			c-12.7-33.8,0.3-68.9,3.3-103.1c3-34.7-7.4-64-25.8-87.5"/>
		<path class="st0" d="M373.8,11.7C341.3,1,305.8-1.9,274.4,4c-24.8,4.6-49.4,15.9-69.1,31.9c-19.1,15.3-34.9,35.1-57.2,46
			C97.7,106.4,27,108.1,19.6,178.7c-4,38.5,22.1,71.7,17.9,109.5C32.6,332,1.9,370.2,6.5,416c2.2,22.8,13.9,44.2,30,61.5"/>
	</g>
	<g>
		<path class="st1" d="M78.6,202.2c2.3,3.1,6,3.3,9.8,4.5c0.8,0.2,4.1,1,5.2,1.6c-2.5,0.1-5.2,0.3-7.8,0.6c-2.8-0.7-6.3-1.5-9-1.9
			c-3.8-0.7-9.4-1-10.2,2.9c-0.6,2.9,1.9,4.4,4.6,4.6c3.4,0.2,6.2-1.5,9.6-3.1c0.7-0.3,3.5-1.8,4.7-2c0.2,0,1.2-0.2,1.3-0.2
			c0,0,0.1,0,0.1,0c0,0,0,0,0,0c1.9-0.2,3.8-0.4,5.7-0.5c-2.5,0.6-5.7,1.5-8,2.2c-3.7,1.2-8.9,4.4-6.3,8.5c1.9,3,5.3,1.7,7.6,0.4
			c2.9-1.6,4-4.1,5.6-7.2c0.4-0.7,1.5-3.2,2.3-4c0.1-0.1,0.3,0,0.4,0c0,0,0.1,0,0.2,0.1c0,0,0-0.1,0-0.1c3.5-0.1,7,0.1,10.6,0.5
			c0.3,0,0.5,0.1,0.8,0.1c-2.7,1.1-5.6,2.3-8.1,3.6c-3.3,1.6-7.7,5.6-4.6,9.2c2.3,2.6,5.2,1.2,7.2-0.4c2.5-2,3.1-4.6,4.1-7.8
			c0.2-0.8,0.7-3.6,1.6-4.5c0,0,0.1,0,0.1,0c0,0,0.1,0.1,0.1,0.1c0-0.1,0-0.1,0-0.1c1.8,0.5,3.7,0.7,5.5,1.4
			c1.8,0.7,3.4,1.9,5.1,2.8c-2.4,0.3-4.5,0.7-6.8,1.6c-3.3,1.3-8,4.6-6,8.6c1.5,2.9,4.5,2.1,6.6,0.9c2.7-1.5,3.5-4,4.8-7
			c0.3-0.7,1.1-3.2,1.8-3.9c2.6,1.4,5.1,3,7.7,4.3c-2.4,0.7-4.2,1.1-6.5,2.4c-2.9,1.7-5.8,5.7-3.5,9.1c1.7,2.5,4.3,1.9,6,0.3
			c2.2-1.9,2.4-4.4,3-7.5c0.1-0.7,0.3-3.5,1.1-4.3c3.1,1.5,6,3,9.4,3.4c0,0-0.1,0.1,0,0.1c0,0,0.1-0.1,0.1-0.1c0,0,0.3-0.1,0.2,0
			c-1.9,1.5-3.9,2.2-6.1,3.7c-2.7,1.9-4.8,6.1-2.1,9.3c2,2.3,4.6,0.9,6-0.9c1.8-2.3,1.7-4.5,1.8-7.7c0-0.8-0.2-3.5,0.4-4.4
			c4.1,0,7.9-0.4,11.7-1.3l-0.2-0.4c-3.8,0.9-7.6,1.4-11.6,1.3c1.1-2.3,2.3-4,3.2-6.5c1.2-3.4,1.6-8.8-2.5-10.9
			c-3-1.5-4.8,0.7-5.1,3.3c-0.4,3.3,1,6.1,2.5,9.5c0.3,0.8,1.7,3.3,1.8,4.5c-3.3-0.2-6.3-1.8-9.3-3.3c1.2-2.3,2.2-3.7,3.2-6.4
			c1.3-3.4,1.2-8.8-2.8-10.8c-3-1.5-5,0.5-5.2,3.1c-0.3,3.3,1.4,5.7,2.8,9c0.3,0.8,2,3.7,2,5c-2.5-1.2-4.9-2.8-7.4-4.1
			c-0.1,0.2-0.1,0.4-0.1-0.5c0.1-1.5,0.7-4.4,0.6-7.5c-0.1-3.1-2.4-8.9-7-9c-3.4-0.1-4.4,2.5-3.3,5.1c1.3,3.4,3.8,4.5,6.4,7.2
			c0.7,0.7,3.2,3.1,3.2,4.5c0,0,0,0,0,0c-1.8-1-3.7-2.3-5.6-3.1c-1.9-0.8-3.8-0.9-5.7-1.4c-0.1-2.6,0.1-4.1-0.4-7
			c-0.8-4-4-8.2-8.6-8c-3.4,0.2-4.5,2.9-3.3,5.6c1.5,3.5,4.5,4.4,7.7,6.5c0.7,0.4,3.4,1.8,4.1,2.7c-0.1,0-0.4,0-0.6-0.1
			c-3.6-0.4-7.2-0.6-10.8-0.5c-1.1-2.5-1.6-4.1-3.1-6.7c-2-3.6-6.6-7.1-10.9-5.7C77.2,196.8,76.8,199.7,78.6,202.2z"/>
		<path class="st1" d="M147.7,250.7c2.7-3.5,4.9-7.2,6.7-11.1l-0.3-0.6c-1.8,4.1-4,7.8-6.8,11.4c-1.4-2.8-2.2-5.1-4.1-7.9
			c-2.5-3.7-7.5-8-12.5-5.5c-3.7,1.8-2.8,5.2-0.5,7.5c3,2.9,6.8,3.4,11.2,4.6c1,0.3,4.5,0.8,5.7,1.6c-2.7,3.1-6.4,4.8-10,6.7
			c-1.4-2.9-2.1-4.8-4-7.8c-2.4-3.7-7.8-7.6-12.7-5.2c-3.7,1.8-3.2,5.2-0.8,7.4c3,2.7,6.6,2.8,10.9,3.9c1,0.3,5.1,0.8,6.3,1.7
			c-3,1.5-6.4,2.8-9.5,4.2c0.2,0.2,0.3,0.4-0.5-0.3c-1.4-1.2-3.8-3.9-6.9-6.1c-3.1-2.1-10.5-4.2-14,0.3c-2.6,3.3-0.8,6.2,2.6,7.1
			c4.3,1.1,7.2-0.5,11.8-1.1c1.2-0.1,5.4-0.9,6.8,0.1c0,0,0,0,0,0c-2.3,1.1-5,1.9-7.1,3.2c-2.1,1.3-3.7,3-5.5,4.5
			c-2.6-1.8-3.9-3.1-7.2-4.7c-4.5-2.1-11-2.1-14.1,2.6c-2.3,3.4-0.5,6.5,3.1,7.3c4.5,1,7.6-1.1,12.1-2.7c0.9-0.3,4.2-2,5.6-2.1
			c-0.1,0.1-0.3,0.3-0.5,0.5c-3,3.2-5.9,6.6-8.4,10.2c-3.3-0.7-5.2-1.4-8.9-1.9c-5.1-0.6-11.9,1.3-13.6,6.5
			c-1.3,3.8,1.3,6.2,5.1,6.3c4.7,0.1,7.7-3.5,11.6-6.3c0.8-0.6,4-3.3,5.3-3.9c-1.7,2.6-3.5,5.3-5.1,8.1c-2.7,2.2-6.1,5.1-8.5,7.4
			c-3.5,3.3-7.9,8.5-4.6,12.2c2.5,2.7,5.7,1.4,7.9-1.1c2.7-3.2,3.1-7.2,4-11.7c0.2-0.9,0.8-4.8,1.5-6.2c0.1-0.2,0.7-1.3,0.8-1.5
			c0,0,0-0.1,0-0.1c0,0,0,0,0,0c1.2-2,2.4-4,3.7-5.9c-1.3,2.9-2.7,6.7-3.6,9.5c-1.5,4.5-2.1,12,3.8,12.4c4.4,0.3,5.5-3.9,5.9-7.2
			c0.5-4.1-1.1-6.9-3-10.8c-0.4-0.9-2.1-3.8-2.2-5.2c0-0.1,0.2-0.3,0.2-0.4c0,0,0.1-0.1,0.2-0.1c0,0-0.1-0.1-0.1-0.1
			c2.5-3.5,5.2-6.8,8.2-10c0.2-0.2,0.5-0.5,0.7-0.7c-0.9,3.4-1.8,7.1-2.5,10.6c-0.8,4.4-0.1,11.6,5.7,11.2c4.3-0.3,5-4.2,4.9-7.4
			c-0.1-3.9-2.2-6.4-4.7-9.8c-0.6-0.8-3.1-3.3-3.2-4.8c0,0,0-0.1,0.1-0.1c0,0,0.1,0,0.2,0c0-0.1-0.1-0.1-0.1-0.1
			c1.8-1.4,3.4-3.2,5.4-4.4c2-1.2,4.4-2,6.5-3c-1.5,2.6-2.6,5-3.4,7.9c-1.2,4.2-1.3,11.3,4,12.2c4,0.6,5.4-2.8,5.7-5.8
			c0.4-3.7-1.4-6.4-3.4-9.8c-0.4-0.8-2.3-3.4-2.5-4.6c3.2-1.5,6.6-2.8,9.8-4.4c-1,2.9-1.9,4.9-2.3,8.1c-0.5,4.1,1.3,9.9,6.4,10.2
			c3.7,0.2,5-2.8,4.7-5.7c-0.3-3.6-2.5-5.6-5.1-8.4c-0.6-0.7-3.2-2.9-3.5-4.2c3.7-1.9,7.3-3.7,10.2-6.8c0,0,0,0.1,0.1,0.1
			c0,0,0-0.1,0-0.1C147.5,250.9,147.6,250.5,147.7,250.7c0,3.1-0.8,5.4-0.9,8.8c-0.1,4,2.5,9.2,7.6,8.9c3.8-0.3,4.3-3.9,3.5-6.6
			c-1-3.4-3.2-5-6.2-7.4C150.9,253.7,148.1,252,147.7,250.7z"/>
	</g>
	<g>
		<path class="st1" d="M455.3,115.4c-2.8-2.7-6.5-2.2-10.4-2.6c-0.8-0.1-4.2-0.2-5.4-0.6c2.5-0.6,5.1-1.2,7.5-2
			c2.9,0.2,6.5,0.3,9.2,0.3c3.9,0,9.4-0.7,9.5-4.7c0-3-2.6-4-5.3-3.7c-3.4,0.4-5.9,2.6-8.9,4.8c-0.6,0.4-3.1,2.4-4.3,2.9
			c-0.2,0.1-1.1,0.4-1.3,0.4c0,0,0,0-0.1,0c0,0,0,0,0,0c-1.8,0.6-3.7,1.1-5.5,1.5c2.3-1,5.3-2.5,7.4-3.6c3.4-1.9,7.9-6,4.6-9.5
			c-2.4-2.6-5.5-0.7-7.5,1c-2.6,2.1-3.2,4.7-4.2,8.1c-0.2,0.7-0.9,3.4-1.6,4.3c-0.1,0.1-0.3,0.1-0.4,0.1c0,0-0.1,0-0.2-0.1
			c0,0,0,0.1,0,0.1c-3.4,0.7-6.9,1.2-10.5,1.4c-0.3,0-0.6,0-0.8,0c2.5-1.6,5.1-3.3,7.4-5c2.9-2.2,6.5-6.9,2.8-9.8
			c-2.7-2.2-5.3-0.2-7,1.7c-2.1,2.4-2.3,5-2.6,8.4c-0.1,0.8,0,3.7-0.7,4.7c0,0-0.1,0-0.1,0c0,0-0.1-0.1-0.1-0.1c0,0.1,0,0.1,0,0.1
			c-1.9-0.1-3.8,0-5.7-0.4c-1.9-0.4-3.7-1.2-5.5-1.8c2.3-0.7,4.3-1.6,6.4-2.8c3-1.8,7.1-6,4.3-9.5c-2-2.6-4.8-1.3-6.6,0.3
			c-2.3,2-2.7,4.6-3.4,7.7c-0.2,0.7-0.5,3.3-1.1,4.1c-2.8-0.9-5.5-2-8.3-2.8c2.2-1.2,3.9-1.9,5.9-3.6c2.6-2.2,4.7-6.6,1.8-9.6
			c-2.1-2.2-4.5-1.1-6,0.8c-1.8,2.3-1.6,4.7-1.6,7.9c0,0.8,0.3,3.5-0.3,4.5c-3.3-0.9-6.4-1.8-9.8-1.6c0,0,0-0.1,0-0.1
			c0,0,0,0.1,0,0.1c0,0-0.3,0.1-0.2,0c1.6-1.8,3.4-2.8,5.3-4.8c2.3-2.4,3.6-6.9,0.4-9.5c-2.4-1.9-4.7,0-5.8,2
			c-1.3,2.6-0.9,4.8-0.4,7.9c0.1,0.8,0.8,3.4,0.4,4.4c-4,0.7-7.7,1.8-11.3,3.4l0.2,0.3c3.6-1.6,7.2-2.7,11.2-3.3
			c-0.7,2.4-1.5,4.3-1.9,7c-0.6,3.6,0.1,8.9,4.4,10.3c3.2,1,4.6-1.6,4.4-4.2c-0.2-3.4-2.1-5.8-4.1-8.9c-0.5-0.7-2.3-3-2.5-4.1
			c3.3-0.4,6.5,0.6,9.7,1.6c-0.8,2.5-1.4,4.1-1.9,6.9c-0.6,3.5,0.4,8.9,4.7,10.1c3.2,1,4.8-1.4,4.6-4c-0.3-3.3-2.4-5.3-4.4-8.4
			c-0.5-0.7-2.6-3.3-2.8-4.6c2.6,0.8,5.4,1.9,8,2.7c0-0.2,0-0.4,0.1,0.5c0.2,1.5,0.1,4.5,0.7,7.5c0.7,3,4,8.3,8.5,7.6
			c3.4-0.5,3.9-3.2,2.4-5.7c-1.9-3.1-4.6-3.7-7.6-5.9c-0.8-0.6-3.7-2.5-4-3.9c0,0,0,0,0,0c2,0.6,4.1,1.6,6.1,2
			c2,0.4,3.9,0.2,5.8,0.3c0.5,2.5,0.6,4.1,1.7,6.8c1.5,3.8,5.4,7.3,9.9,6.3c3.3-0.8,3.9-3.6,2.2-6.1c-2.1-3.1-5.2-3.6-8.7-5
			c-0.7-0.3-3.6-1.2-4.5-1.9c0.1,0,0.4,0,0.6,0c3.6-0.2,7.2-0.7,10.7-1.5c1.6,2.2,2.4,3.7,4.3,6c2.7,3.2,7.8,5.8,11.7,3.7
			C457.8,120.4,457.5,117.5,455.3,115.4z"/>
		<path class="st1" d="M378.6,80.3c-2,4-3.5,7.9-4.6,12.1l0.4,0.5c1-4.3,2.6-8.4,4.7-12.4c1.9,2.5,3.1,4.6,5.4,7
			c3.1,3.2,8.8,6.5,13.3,3.2c3.3-2.5,1.8-5.6-0.9-7.4c-3.4-2.3-7.3-2.2-11.8-2.5c-1-0.1-4.6,0-5.9-0.5c2.1-3.5,5.4-5.9,8.6-8.4
			c1.9,2.6,2.9,4.4,5.3,6.9c3,3.2,9,6.1,13.4,2.8c3.3-2.4,2.2-5.7-0.6-7.4c-3.5-2.1-7-1.6-11.4-1.8c-1.1-0.1-5.2,0.1-6.6-0.6
			c2.7-2,5.7-3.9,8.6-5.9c-0.2-0.2-0.4-0.3,0.5,0.2c1.6,0.9,4.5,3.2,7.9,4.7c3.4,1.5,11.1,2.2,13.7-2.8c1.9-3.7-0.3-6.2-3.8-6.5
			c-4.4-0.3-7,1.8-11.4,3.2c-1.2,0.4-5.1,1.8-6.7,1.1c0,0,0,0,0,0c2-1.5,4.6-2.8,6.4-4.5c1.9-1.7,3.1-3.7,4.6-5.5
			c2.9,1.3,4.4,2.4,7.9,3.3c4.8,1.3,11.2,0,13.4-5.1c1.7-3.8-0.7-6.5-4.4-6.7c-4.6-0.2-7.3,2.5-11.4,4.9c-0.8,0.5-3.8,2.7-5.2,3
			c0.1-0.1,0.3-0.4,0.4-0.6c2.4-3.7,4.6-7.6,6.4-11.6c3.4,0.1,5.4,0.4,9.1,0.2c5.1-0.3,11.4-3.4,12.2-8.8c0.6-4-2.4-5.9-6.1-5.3
			c-4.7,0.8-6.9,4.8-10.2,8.3c-0.7,0.7-3.3,4-4.5,4.8c1.2-2.8,2.5-5.9,3.5-8.9c2.3-2.7,5-6.2,7-8.9c2.8-3.9,6.2-9.8,2.3-12.8
			c-2.9-2.2-5.9-0.4-7.5,2.5c-2.1,3.6-1.7,7.7-1.8,12.2c0,0.9,0,4.8-0.3,6.3c-0.1,0.2-0.5,1.4-0.5,1.6c0,0,0,0.1,0,0.1c0,0,0,0,0,0
			c-0.8,2.2-1.7,4.4-2.6,6.5c0.7-3,1.5-7.1,1.9-10c0.6-4.7-0.1-12.2-5.9-11.5c-4.3,0.5-4.7,4.9-4.5,8.1c0.2,4.1,2.3,6.6,4.9,10
			c0.6,0.8,2.8,3.4,3.1,4.7c0,0.1-0.1,0.4-0.2,0.4c0,0-0.1,0.1-0.2,0.1c0.1,0,0.1,0,0.1,0c-1.8,3.9-3.9,7.7-6.3,11.3
			c-0.2,0.3-0.4,0.6-0.6,0.8c0.3-3.6,0.5-7.4,0.5-10.9c0-4.5-2-11.4-7.6-10c-4.1,1.1-4.1,5.1-3.5,8.1c0.8,3.9,3.3,5.9,6.4,8.8
			c0.7,0.7,3.6,2.7,4,4.1c0,0,0,0.1,0,0.1c0,0-0.1,0-0.2,0c0,0,0.1,0.1,0.1,0.1c-1.5,1.7-2.8,3.7-4.5,5.3c-1.7,1.6-3.9,2.7-5.8,4.1
			c1-2.8,1.6-5.4,1.9-8.4c0.4-4.3-0.7-11.3-6.2-11.2c-4,0.1-4.8,3.7-4.6,6.7c0.3,3.8,2.5,6,5.1,9c0.6,0.7,2.9,2.9,3.3,4.1
			c-2.9,2.1-6,4-8.9,6.1c0.5-3,1-5.2,0.8-8.4c-0.2-4.1-3.1-9.5-8.1-8.8c-3.7,0.5-4.4,3.7-3.6,6.4c0.9,3.5,3.5,5,6.6,7.3
			c0.7,0.6,3.7,2.3,4.2,3.6c-3.3,2.6-6.5,5-8.8,8.5c0,0-0.1-0.1-0.1-0.1c0,0,0,0.1,0.1,0.1C378.8,80,378.7,80.4,378.6,80.3
			c-0.6-3-0.2-5.5-0.7-8.8c-0.6-4-4.1-8.6-9.1-7.4c-3.7,0.9-3.5,4.6-2.3,7.1c1.6,3.2,4,4.3,7.5,6.1C374.9,77.8,378,79.1,378.6,80.3z
			"/>
	</g>
	<g>
		<path class="st1" d="M495.7,454.2c-3.8,1-5.3,4.4-7.7,7.5c-0.5,0.6-2.4,3.5-3.4,4.2c0.8-2.4,1.6-4.9,2.3-7.5
			c1.7-2.3,3.7-5.3,5.1-7.7c2-3.3,4.4-8.4,1-10.6c-2.5-1.6-4.8,0.1-6,2.6c-1.5,3.1-0.9,6.3-0.6,10c0.1,0.7,0.4,3.9,0.2,5.2
			c0,0.2-0.3,1.2-0.3,1.3c0,0,0,0,0,0.1c0,0,0,0,0,0c-0.5,1.8-1,3.7-1.7,5.5c0.4-2.5,0.7-5.8,0.8-8.2c0.2-3.9-0.9-9.9-5.6-8.9
			c-3.5,0.7-3.5,4.3-3.1,6.9c0.5,3.3,2.3,5.2,4.6,7.8c0.5,0.6,2.5,2.5,2.8,3.6c0,0.1-0.1,0.3-0.1,0.4c0,0-0.1,0.1-0.2,0.1
			c0,0,0.1,0,0.1,0c-1.2,3.3-2.7,6.5-4.4,9.6c-0.1,0.2-0.3,0.5-0.4,0.7c0-2.9-0.1-6-0.3-8.9c-0.3-3.7-2.4-9.2-6.9-7.6
			c-3.3,1.1-3,4.4-2.3,6.8c0.9,3.1,3.1,4.6,5.8,6.7c0.6,0.5,3.1,2,3.6,3.1c0,0,0,0.1,0,0.1c0,0-0.1,0-0.2,0c0,0,0.1,0.1,0.1,0.1
			c-1.1,1.5-2,3.2-3.3,4.6c-1.3,1.4-3,2.5-4.5,3.8c0.6-2.4,1-4.5,1-7c0-3.5-1.4-9.2-5.8-8.7c-3.3,0.3-3.6,3.4-3.3,5.8
			c0.5,3,2.5,4.7,4.8,7c0.5,0.5,2.5,2.2,2.9,3.1c-2.2,1.9-4.6,3.6-6.8,5.6c0.2-2.5,0.5-4.3,0.1-6.9c-0.5-3.3-3.2-7.5-7.2-6.6
			c-3,0.6-3.3,3.3-2.5,5.5c1,2.8,3.2,3.9,5.8,5.5c0.6,0.4,3.2,1.6,3.6,2.6c-2.5,2.3-5,4.5-6.6,7.5c0,0-0.1-0.1-0.1-0.1
			c0,0,0,0.1,0.1,0.1c0,0,0,0.3-0.1,0.2c-0.7-2.3-0.6-4.4-1.3-7c-0.8-3.2-3.9-6.7-7.9-5.4c-2.9,1-2.5,4-1.3,6
			c1.5,2.5,3.6,3.3,6.5,4.5c0.7,0.3,3.3,1.1,3.9,2c-1.5,3.8-2.5,7.5-3.1,11.4l0.4,0c0.5-3.9,1.5-7.5,3.1-11.3
			c1.7,1.9,2.8,3.6,4.9,5.3c2.7,2.4,7.6,4.7,11.1,1.7c2.5-2.2,1.1-4.7-1.2-6c-2.9-1.6-6.1-1.3-9.8-1.2c-0.8,0-3.7,0.3-4.8,0
			c1.4-3,4-5.2,6.5-7.4c1.7,2,2.7,3.4,4.8,5.3c2.7,2.4,7.7,4.3,11.1,1.3c2.5-2.2,1.4-4.8-1-6c-3-1.5-5.8-0.8-9.4-0.7
			c-0.9,0-4.2,0.5-5.4,0c2.1-1.8,4.4-3.6,6.6-5.3c-0.2-0.1-0.3-0.2,0.5,0.1c1.3,0.6,3.8,2.3,6.7,3.3c2.9,1,9.2,1,11-3.2
			c1.3-3.1-0.7-5-3.6-5c-3.6,0-5.6,1.9-9,3.3c-0.9,0.4-4,1.8-5.4,1.4c0,0,0,0,0,0c1.6-1.4,3.5-2.6,4.9-4.1c1.4-1.5,2.2-3.2,3.4-4.8
			c2.4,0.9,3.8,1.6,6.6,2.1c4,0.7,9.1-0.7,10.6-5.1c1.1-3.2-1-5.2-4-5.1c-3.8,0.2-5.8,2.5-8.9,4.7c-0.6,0.5-2.9,2.5-4,2.8
			c0-0.1,0.2-0.3,0.3-0.5c1.7-3.2,3.2-6.5,4.4-9.8c2.7-0.1,4.4,0,7.4-0.4c4.1-0.6,9.1-3.6,9.3-8
			C501.2,454.7,498.7,453.4,495.7,454.2z"/>
		<path class="st1" d="M425.3,500.7c2.3,3.8,4.9,7.2,7.9,10.3l0.6,0c-3.1-3.2-5.8-6.6-8.1-10.5c3.1-0.3,5.6-0.2,8.8-0.9
			c4.4-1,10.2-4.1,9.7-9.6c-0.3-4.1-3.8-4.5-6.8-3.2c-3.8,1.7-5.7,5-8.3,8.7c-0.6,0.8-2.4,3.9-3.5,4.7c-1.9-3.6-2.2-7.7-2.6-11.8
			c3.2-0.2,5.3-0.2,8.7-0.8c4.3-0.9,9.9-4.4,9.5-9.9c-0.3-4.1-3.7-4.9-6.6-3.4c-3.7,1.8-5,5.1-7.6,8.7c-0.6,0.9-2.6,4.5-3.9,5.3
			c-0.3-3.4-0.3-6.9-0.5-10.4c-0.3,0.1-0.5,0.1,0.5-0.4c1.6-0.9,5.1-2.1,8.2-4.2c3.1-2.1,7.7-8.3,4.9-13.1c-2.1-3.6-5.4-3-7.5-0.2
			c-2.6,3.6-2.2,6.9-3.3,11.3c-0.3,1.2-1.2,5.3-2.6,6.3c0,0,0,0,0,0c-0.2-2.5,0-5.4-0.4-7.8c-0.4-2.4-1.5-4.5-2.2-6.8
			c2.6-1.8,4.4-2.5,7-5c3.6-3.4,5.9-9.5,2.8-14.1c-2.4-3.4-5.9-2.9-8,0.2c-2.6,3.8-1.7,7.5-1.9,12.2c0,1,0.3,4.6-0.2,6
			c-0.1-0.1-0.2-0.4-0.3-0.6c-1.9-4-4-7.9-6.4-11.5c1.9-2.8,3.2-4.3,5-7.6c2.5-4.5,3.1-11.5-1.1-15c-3.1-2.6-6.3-1.1-7.7,2.4
			c-1.8,4.4,0.4,8.4,1.7,13.1c0.3,0.9,1.6,4.9,1.7,6.4c-1.8-2.5-3.7-5.2-5.7-7.7c-1.1-3.4-2.6-7.5-3.8-10.7c-1.8-4.4-5-10.5-9.6-8.7
			c-3.4,1.3-3.4,4.8-1.8,7.7c2,3.7,5.6,5.5,9.4,8c0.8,0.5,4.1,2.5,5.2,3.6c0.2,0.2,0.9,1.1,1.1,1.3c0,0,0,0,0,0.1c0,0,0,0,0,0
			c1.5,1.8,2.9,3.7,4.2,5.6c-2.2-2.2-5.2-5-7.5-6.8c-3.7-3-10.4-6.4-12.9-1c-1.9,4,1.6,6.6,4.5,8.1c3.6,2,6.8,1.5,11.1,1.2
			c1-0.1,4.3-0.6,5.6-0.1c0.1,0,0.3,0.3,0.3,0.4c0,0,0,0.1,0,0.2c0,0,0.1-0.1,0.1-0.1c2.3,3.6,4.4,7.4,6.3,11.3
			c0.1,0.3,0.3,0.6,0.4,0.9c-2.9-2.1-6-4.3-9-6.2c-3.8-2.4-10.8-4.3-12.5,1.2c-1.3,4.1,2.1,6.2,5.1,7.2c3.7,1.4,6.8,0.3,10.8-0.8
			c1-0.3,4.2-1.6,5.6-1.2c0,0,0.1,0,0.1,0.1c0,0,0,0.1-0.1,0.2c0.1,0,0.1,0,0.1,0c0.7,2.2,1.7,4.3,2.1,6.6c0.4,2.3,0.2,4.8,0.4,7.1
			c-1.9-2.4-3.7-4.2-6.1-6.1c-3.4-2.6-10-5.4-12.8-0.7c-2.1,3.4,0.6,6,3.3,7.4c3.3,1.8,6.4,1,10.4,0.5c0.9-0.1,4-0.9,5.2-0.6
			c0.2,3.6,0.2,7.2,0.5,10.8c-2.3-2-3.9-3.6-6.7-5.1c-3.6-2-9.7-2.4-11.8,2.2c-1.6,3.4,0.8,5.6,3.5,6.5c3.5,1.1,6.1-0.3,9.7-1.7
			c0.9-0.3,3.9-1.9,5.2-1.7c0.4,4.2,0.8,8.2,2.6,11.9c0,0-0.1,0-0.1,0c0,0,0.1,0,0.1,0c0,0,0.3,0.3,0.1,0.2c-2.8-1-4.7-2.6-7.8-3.9
			c-3.7-1.5-9.5-1.1-11,3.8c-1.1,3.6,2.1,5.4,4.9,5.7c3.6,0.4,5.8-1.1,9.1-3.1C421.3,502.5,423.9,500.6,425.3,500.7z"/>
	</g>
	<g class="st2">
		<polyline class="st3" points="432.3,229.2 464,229.2 464,281.9 455.4,281.9 		"/>
		<polyline class="st3" points="451.3,281.9 423.8,281.9 423.8,229.2 427.9,229.2 		"/>
		<line class="st3" x1="443.9" y1="282.8" x2="443.9" y2="303.8"/>
		<polyline class="st3" points="469,304.9 482.6,304.9 482.6,314.9 		"/>
		<line class="st3" x1="416.2" y1="304.9" x2="465.5" y2="304.9"/>
		<polyline class="st3" points="405.2,314.7 405.2,304.9 411.1,304.9 		"/>
		<rect x="397.1" y="315.1" class="st3" width="13.9" height="14.7"/>
		<rect x="423" y="315.1" class="st3" width="13.9" height="14.7"/>
		<polyline class="st3" points="454.2,329.7 449,329.7 449,315.1 462.9,315.1 462.9,329.7 458,329.7 		"/>
		<rect x="474.9" y="315.1" class="st3" width="13.9" height="14.7"/>
		<line class="st3" x1="430.2" y1="314.4" x2="430.2" y2="304.9"/>
		<line class="st3" x1="456.1" y1="314.4" x2="456.1" y2="304.9"/>
	</g>
	<g class="st2">
		<polyline class="st3" points="61.2,13.1 72.6,13.1 72.6,52.1 42.4,52.1 42.4,13.1 56.8,13.1 		"/>
		<g>
			<polyline class="st3" points="25.8,93.5 19.7,93.5 19.7,70.4 36.4,70.4 36.4,93.5 30.2,93.5 			"/>
			<rect x="49.2" y="70.4" class="st3" width="16.7" height="23.1"/>
			<polyline class="st3" points="78.6,81.4 78.6,70.4 95.3,70.4 95.3,93.5 78.6,93.5 78.6,84.9 			"/>
		</g>
		<line class="st3" x1="40.3" y1="61.8" x2="27.9" y2="70.4"/>
		<line class="st3" x1="54" y1="52.2" x2="42.6" y2="60.1"/>
		<line class="st3" x1="58.1" y1="52.9" x2="58.1" y2="69.6"/>
		<line class="st3" x1="63" y1="52.2" x2="87.5" y2="70.5"/>
	</g>
	<g class="st2">
		<polyline class="st3" points="210.1,370.4 218.1,370.4 218.1,409.7 187.6,409.7 187.6,370.4 207.5,370.4 		"/>
		<polyline class="st3" points="154,404.2 150.2,404.2 150.2,381 167,381 167,404.2 157.3,404.2 		"/>
		<rect x="194.4" y="428.1" class="st3" width="16.8" height="23.2"/>
		<polyline class="st3" points="246.4,404.2 239.1,404.2 239.1,381 255.9,381 255.9,404.2 250.1,404.2 		"/>
		<line class="st3" x1="187.7" y1="391.8" x2="167.8" y2="391.8"/>
		<line class="st3" x1="238.5" y1="391.8" x2="218.6" y2="391.8"/>
		<line class="st3" x1="203.2" y1="421.6" x2="203.2" y2="427.8"/>
		<line class="st3" x1="203.2" y1="410.2" x2="203.2" y2="418.1"/>
	</g>
	<g>
		<rect x="134.5" y="32.5" class="st4" width="250.9" height="293.9"/>
		<g>
			<rect x="134.5" y="32.5" class="st5" width="250.9" height="12.4"/>
			<path class="st4" d="M356.2,38.3c0-1.6-1.3-3-3-3c-1.6,0-3,1.3-3,3s1.3,3,3,3C354.9,41.3,356.2,39.9,356.2,38.3z"/>
			<path class="st4" d="M366.5,38.3c0-1.6-1.3-3-3-3c-1.6,0-3,1.3-3,3s1.3,3,3,3C365.2,41.3,366.5,39.9,366.5,38.3z"/>
			<circle class="st4" cx="373.8" cy="38.3" r="3"/>
		</g>
		<g>
			<rect x="147" y="246.8" class="st6" width="103.7" height="61.1"/>
			<rect x="267.8" y="246.8" class="st6" width="103.7" height="61.1"/>
			<rect x="269.5" y="61.9" class="st6" width="101" height="165.2"/>
		</g>
	</g>
	<g>
		<line class="st7" x1="296.9" y1="511" x2="484.6" y2="511"/>
		<line class="st7" x1="21.3" y1="511" x2="291.1" y2="511"/>
	</g>
	<g>
		<g>
			<rect x="278.4" y="347.8" class="st8" width="102.1" height="64.6"/>
			<ellipse class="st5" cx="296.7" cy="365.1" rx="9.1" ry="9.1"/>
			<polygon class="st5" points="380.5,379.7 360.4,362.1 338.5,386.8 315.8,373 278.4,412.4 380.5,412.4 			"/>
		</g>
		<g>
			<path class="st4" d="M380.9,360.2c0,0,1.1-0.4,1.9,0.6c0.7,0.9,0.7,2.1,0.7,2.1s1.5,1.9,1.7,3c0.2,1.1-1.9,6.2-1.9,6.2l5.2,13.2
				l-7.3-12.5c0,0-3.4-6-3.7-6.9c-0.4-0.9-0.4-4.1-0.4-5c0-0.9-0.2-3,0.9-1.9c1.1,1.1,1.5,2.1,1.5,2.1v0.7L380.9,360.2z"/>
			<path class="st4" d="M317.7,407.3l-3.5-0.4c0,0-2.8-0.7-3.5-0.7c-0.7,0-3.4,1.5-4.1,2.2c-0.7,0.7-1.9,1.1-1.3,1.9
				c0.6,0.7,3.4-0.2,3.4-0.2l-2.4,3.2c0,0,0,1.3,1.3,1.7c1.3,0.4,2.8-0.6,2.8-0.6s3,0.6,3.5,0.7c0.6,0.2,7.1-3.7,7.1-3.7
				L317.7,407.3z"/>
			<path class="st9" d="M336.9,406.4l-1.9,44.5c0,0,0.6,29.6,1.7,35.2c1.1,5.6,2.1,10.4,2.1,10.4l-0.9,2.1v2.8c0,0-6.7,4.7-8.2,5.8
				c-1.5,1.1-2.4,1.7-1.5,2.2c0.9,0.6,13.4,1.3,15.7,1.3s3.7-0.2,3.9-1.1c0.2-0.9-0.2-7.6-0.2-7.6s0.6-4.5,0.7-5.8
				c0.2-1.3-0.6-6.7-0.6-9.9c0-3.2,0.9-24.6,1.1-28.5c0.2-3.9,3.4-25.7,3.4-25.7s6.9,49.8,7.3,52c0.4,2.2,3.5,13,3.5,13s0,1.7,0,2.2
				s1.1,4.5,1.1,4.5s0,6.2,0.9,6.7c0.9,0.6,4.5,0.7,5.6-0.6c1.1-1.3-0.2-6.7-0.2-6.7s0.4-4.7,0.4-6.5c0-1.9-1.3-6.9-1.3-8.2
				c0-1.3-1.5-40.8-1.5-40.8l0.9-41.2l-31.9-2.8L336.9,406.4z"/>
			<g>
				<path class="st4" d="M352.4,351.4c0,0-15.1,6.7-15.8,9.5c-0.7,2.8-0.4,44.2-0.2,45.7c0.2,1.5,9.1,3.5,15.7,4.1s15.8-1.9,17-4.1
					c1.1-2.2,2.8-20.1,2.8-20.1l1.1-3.9c0,0,8,9.1,11.7,10.8c3.7,1.7,5.6-1.3,5.2-4.3c-0.4-3-8.8-17.9-10.1-21.1
					c-1.3-3.2-1.9-8.9-3.4-10.8c-1.5-1.9-8.2-6.9-8.2-6.9S358.2,347.5,352.4,351.4z"/>
				<path class="st4" d="M344.2,355.9c0,0-10.1,3.7-10.6,6.5c-0.6,2.8-0.4,28.7-0.4,28.7l-15.5,16.2l2.4,5.4
					c0,0,26.3-15.8,26.7-18.8c0.4-3,0-27.4,0-27.4"/>
				<line class="st4" x1="372.9" y1="382.5" x2="375.9" y2="368"/>
				<line class="st7" x1="373.4" y1="380.5" x2="377.5" y2="373.6"/>
				<path class="st4" d="M363.7,372.5c-2.5,4.6-6.2,11.1-9.9,15.6"/>
				<path class="st4" d="M366.7,366.7c0,0-0.5,1-1.3,2.5"/>
				<path class="st7" d="M354.9,393.3c-3.3,2.6-8,6.1-10.3,7.2"/>
				<path class="st7" d="M358.5,390.4c0,0-0.7,0.6-1.8,1.5"/>
			</g>
			<g>
				<path class="st4" d="M365.4,339.3l0.2,8.8l-12.5,3l2.4-10.6c0,0,0.9-3.7,4.8-3.9C364.3,336.3,365.4,339.3,365.4,339.3z"/>
				<g>
					<path class="st4" d="M353.9,324.6c0,0-3,2.8-3,3.9c0,1.1-1.3,3.2-1.9,4.1c-0.6,0.9-3,1.1-2.8,2.6c0.2,1.5,1.7,1.9,1.7,1.9
						s-2.2,10.6,1.1,11.7c3.4,1.1,8.9-4.8,8.9-4.8l1.3-4.5c0,0,4.5,1.1,5.8,1.1c1.3,0,5.4-3.7,7.6-7.1c2.2-3.4-2.8-10.8-9.3-13.2
						c-6.5-2.4-11.7,0.9-11.7,2.4S353.9,324.6,353.9,324.6z"/>
					<path class="st9" d="M363.4,320.3c-6.5-2.4-11.7,0.9-11.7,2.4c0,1.4,2,1.8,2.2,1.9l0,0c0,0,4.7,1.3,4.7,2.6
						c0,1.3-1.1,1.1-1.3,1.7c-0.2,0.6-0.6,0.9,0.2,1.5c0.7,0.6,0.7,0.6,0.7,0.6s-1.1,5.8-1.5,7.3c-0.4,1.5-1.3,1.9-2.4,1.9
						c-1.1,0-4.7-3.5-6.3-3c0,0-2.2,10.6,1.1,11.7c3.4,1.1,8.9-4.8,8.9-4.8l1.3-4.5c0,0,4.5,1.1,5.8,1.1c1.3,0,5.4-3.7,7.6-7.1
						C374.9,330.2,369.9,322.7,363.4,320.3z"/>
					<path class="st7" d="M351.8,330c0,0,2.1-0.7,3.2,1.1"/>
					<path class="st7" d="M351.6,332.4c0,0,1.9-0.6,3,0.6"/>
					<path class="st10" d="M348.3,340.8c0,0,2.1,0.7,3.5,0"/>
					<path class="st4" d="M358.5,334.8c0,0,1.7-2.6,2.8-1.3c1.1,1.3,0.4,5-0.9,5.8c-1.3,0.7-2.1-0.2-2.1-0.2L358.5,334.8z"/>
				</g>
				<path class="st4" d="M365.4,345.8c0,0-8.6,1.3-10.4,1.9c-1.9,0.6-5,2.4-5,2.4l-0.7,2.8c0,0,13.1-2.8,15.5-2.8
					c2.4,0,3.5,0.2,3.5,0.2S367.3,345.6,365.4,345.8z"/>
			</g>
		</g>
	</g>
	<g>
		<rect x="134.5" y="288.3" class="st9" width="66.2" height="38.5"/>
		<rect x="99.9" y="283.1" class="st8" width="94.7" height="52.8"/>
		<polygon class="st9" points="158.3,306.3 140.9,296.3 140.9,316.4 		"/>
		<rect x="99.9" y="327.5" class="st9" width="94.7" height="8.4"/>
		<rect x="99.9" y="330.2" class="st4" width="94.7" height="3"/>
		<path class="st4" d="M78.5,337.3l17.8-18.9c0,0,0.9-3.5,1-4.5c0.2-1,1.6-2.4,2.6-3.3c1-0.9,1.6-1.6,1.6,0c0,1.6-1.6,2.4-1.6,2.4
			s-0.2,4.2-0.2,4.7c0,0.5,0,2.1,0,2.1l-13.1,19.6L78.5,337.3z"/>
		<path class="st4" d="M78.2,343.3c0,0-1.4-1.9-1.2-4.2c0.2-2.3,3-4.2,5.4-3.5c2.4,0.7,5.1,1.2,5.4,3.3c0.3,2.1-3.1,1.7-5.9,2.1
			C79.1,341.4,78.2,343.3,78.2,343.3z"/>
		<path class="st4" d="M129.4,356c0,0,16.2-21.3,17.1-22.5c0.9-1.2,1.4-0.9,3.1-0.9c1.7,0,4.7-0.7,5.1-0.2c0.3,0.5,0.5,1.4-0.2,1.4
			c-0.7,0-3.8,0.7-3.8,0.7l4.5,1.2c0,0,1.9,0,1.9,0.5c0,0.5-0.3,0.3-2.1,1c-1.7,0.7-4,1.2-4.9,1.2s-2.8,0-2.8,0h-0.9L133.6,363
			L129.4,356z"/>
		<g>
			<path class="st4" d="M90.6,443l1.2,5.6c0,0-5.4,0.7-12.9,0.7s-14-1-14-1s-1.7-4.5-3.7-5.1c-1.9-0.5-7.9,4.7-10.5,6.5
				c-2.6,1.7-4.9,4.9-4,5.8c0.9,0.9,5.2-0.9,5.2-0.9s7.7-1.2,10.1-1.2c2.4,0,6.1,1.2,12.4,2.4c6.3,1.2,19.4,2.1,22.5,2.1
				c3.1,0,4.7,0.2,5.8-3c1-3.1,0-13.8,0-13.8l-12.9-1L90.6,443z"/>
			<path class="st9" d="M54.6,454.1l-0.7-0.9l10.9-4.9c0,0-1.7-4.5-3.7-5.1c-1.9-0.5-7.9,4.7-10.5,6.5c-2.6,1.7-4.9,4.9-4,5.8
				c0.9,0.9,5.2-0.9,5.2-0.9S53.1,454.3,54.6,454.1z"/>
		</g>
		<g>
			<path class="st4" d="M100.2,443.8l1.6,10.8c0,0-1.2,13.6-0.7,19.6c0.5,5.9,0.5,25.3,0.5,25.3s-2.8,4.9-2.4,5.9
				c0.3,1,4.5,4,6.5,4.9c1.9,0.9,5.2,0.9,5.8-0.2c0.5-1-2.4-2.8-2.4-2.8l-2.8-7c0,0,7.9-44.7,7.9-48c0-3.3,0.7-11.3,0.7-11.3
				L100.2,443.8z"/>
			<path class="st9" d="M104,502.6c-1.3-1.1-2.7-1.2-3.4-1.2c-0.8,1.5-1.7,3.5-1.5,4.1c0.3,1,4.5,4,6.5,4.9c1.9,0.9,5.2,0.9,5.8-0.2
				c0.5-1-2.4-2.8-2.4-2.8S106,504.2,104,502.6z"/>
		</g>
		<path class="st9" d="M86.9,393.7c0,0-4,8-5.1,19.6c-1,11.5,7.3,29.2,7.3,29.2s1,3.3,10.5,3.7c9.4,0.3,16.2-3.5,16.2-3.5
			s3.6-12.4,1.6-31.6c-0.8-7.8-4.2-13.3-4.2-13.3L86.9,393.7z"/>
		<path class="st4" d="M106.1,354.3l22.7,1.6l3.7,8.2c0,0-3,0.7-8.7,1.7c-5.8,1-9.6,2.1-9.6,2.1s0.3,4.4,0.3,8.4s-1.9,12.6-1.9,12.6
			l2.3,11.9c0,0-4.9-1.7-7-1.7c-2.1,0-3.2,2.3-9.4,3.7c-10.1,2.3-12.7-7.3-12.7-7.3s3-6.8,3-9.8c0-3-4.5-19.9-4.5-19.9l-6.3-23.2
			c0,0-1.2-2.8,2.8-3.3c4-0.5,6.1,0.3,6.1,0.3l9.4,12.7c0,0,3.3,2.4,4.7,2.3C102.3,354.3,106.1,354.3,106.1,354.3z"/>
		<path class="st4" d="M107.5,332.6c0,0,0.2,2.3,1.2,3.1c1,0.9,2.8,0.9,2.8,2.3c0,1.4,0.2,2.3,0.2,2.3s0,4.5-0.2,5.9
			c-0.2,1.4-4.5,2.8-4.5,2.8l-0.2,5.1l-5.4-2.6c0,0-1.9-4.7-0.3-10.1C102.6,335.9,107.5,332.6,107.5,332.6z"/>
		<path class="st9" d="M107.2,328.1c0,0,1.4,5.4-0.2,8.6c-1.6,3.1-4.2,5.1-3.1,7.7c1,2.6,3.8,8,3,9.8c-0.9,1.7-8.4,5.8-13.8,3.3
			c-5.4-2.4-4.9-6.1-4.9-6.1s2.6,1,2.1-1.6c-0.5-2.6-3.1-3.3-4-9.6c-0.9-6.3,3.8-10.8,9.3-12.9C100.9,325.1,105.3,325.5,107.2,328.1
			z"/>
		<path class="st4" d="M127.1,355.7c0,0,2.3,3.5,2.6,5.2c0.3,1.7,0.9,4,0.9,4s1.9,0.9,3.3-0.7c1.4-1.6,0.5-4.4-0.7-5.9
			c-1.2-1.6-3.5-3.5-3.5-3.5S127.6,354.8,127.1,355.7z"/>
	</g>
	<g>
		<rect x="304.3" y="68.5" class="st9" width="81.1" height="165.2"/>
		<rect x="298.2" y="61.9" class="st4" width="101" height="165.2"/>
		<g>
			<rect x="306.3" y="75" class="st8" width="84.9" height="71.8"/>
			<polygon class="st5" points="391.2,108.3 379.2,96.6 360.4,120.7 341,109.3 306.3,146.8 391.2,146.8 			"/>
			<ellipse class="st5" cx="322" cy="91.6" rx="9" ry="9"/>
		</g>
		<line class="st7" x1="384.4" y1="160.8" x2="389.2" y2="160.8"/>
		<line class="st7" x1="351.2" y1="160.8" x2="379.7" y2="160.8"/>
		<line class="st7" x1="325" y1="160.8" x2="346.2" y2="160.8"/>
		<line class="st7" x1="306.9" y1="160.8" x2="319.5" y2="160.8"/>
		<line class="st7" x1="379.9" y1="176.9" x2="389.2" y2="176.9"/>
		<line class="st7" x1="347.7" y1="176.9" x2="377.2" y2="176.9"/>
		<line class="st7" x1="306.9" y1="176.9" x2="344.7" y2="176.9"/>
		<line class="st7" x1="335" y1="192.9" x2="389.2" y2="192.9"/>
		<line class="st7" x1="306.9" y1="192.9" x2="330.7" y2="192.9"/>
		<line class="st7" x1="380.7" y1="209" x2="389.2" y2="209"/>
		<line class="st7" x1="323.2" y1="209" x2="376.9" y2="209"/>
		<line class="st7" x1="306.9" y1="209" x2="319.7" y2="209"/>
	</g>
	<g>
		<polygon class="st9" points="247.2,113 247.2,213.3 168.4,213.3 168.4,194.7 134.5,194.7 134.5,83.7 182.8,83.7 194.1,94.5 
			194.1,102.3 236,102.3 		"/>
		<g>
			<polygon class="st4" points="189.1,186.2 110.2,186.2 110.2,75.2 177.8,75.2 189.1,85.9 			"/>
			<polygon class="st4" points="177.8,75.2 177.8,86.3 189.1,86.3 			"/>
			<line class="st4" x1="138.1" y1="99.5" x2="175.3" y2="99.5"/>
			<line class="st4" x1="124.3" y1="99.5" x2="134" y2="99.5"/>
			<line class="st4" x1="156.9" y1="114.8" x2="175.3" y2="114.8"/>
			<line class="st4" x1="124.3" y1="114.8" x2="153.1" y2="114.8"/>
			<line class="st4" x1="142.8" y1="130.2" x2="175.3" y2="130.2"/>
			<line class="st4" x1="124.3" y1="130.2" x2="139.9" y2="130.2"/>
			<line class="st4" x1="124.3" y1="145.5" x2="175.3" y2="145.5"/>
			<line class="st4" x1="156.3" y1="160.8" x2="175.3" y2="160.8"/>
			<line class="st4" x1="124.3" y1="160.8" x2="151" y2="160.8"/>
		</g>
		<g>
			<polygon class="st4" points="242.2,204.7 163.4,204.7 163.4,93.7 231,93.7 242.2,104.5 			"/>
			<polygon class="st4" points="231,93.7 231,104.8 242.2,104.8 			"/>
			<line class="st4" x1="199.6" y1="118" x2="228.5" y2="118"/>
			<line class="st4" x1="177.5" y1="118" x2="196.1" y2="118"/>
			<line class="st4" x1="219.9" y1="133.4" x2="228.5" y2="133.4"/>
			<line class="st4" x1="177.5" y1="133.4" x2="216.6" y2="133.4"/>
			<line class="st4" x1="222.5" y1="148.7" x2="228.5" y2="148.7"/>
			<line class="st4" x1="189.6" y1="148.7" x2="218.7" y2="148.7"/>
			<line class="st4" x1="177.5" y1="148.7" x2="184.6" y2="148.7"/>
			<line class="st4" x1="204" y1="164.1" x2="228.5" y2="164.1"/>
			<line class="st4" x1="177.5" y1="164.1" x2="200.2" y2="164.1"/>
			<line class="st4" x1="202.8" y1="179.4" x2="228.5" y2="179.4"/>
			<line class="st4" x1="177.5" y1="179.4" x2="198.7" y2="179.4"/>
		</g>
	</g>
</g>
</svg>
