<?xml version="1.0" encoding="utf-8"?>
<!-- Generator: Adobe Illustrator 24.0.3, SVG Export Plug-In . SVG Version: 6.00 Build 0)  -->
<svg version="1.1" id="Layer_1" xmlns="http://www.w3.org/2000/svg" xmlns:xlink="http://www.w3.org/1999/xlink" x="0px" y="0px"
	 viewBox="0 0 512 512" style="enable-background:new 0 0 512 512;" xml:space="preserve">
<style type="text/css">
	.st0{fill:none;stroke:#001E2D;stroke-width:1.3698;stroke-miterlimit:10;}
	.st1{fill:#5AE4A7;}
	.st2{fill:#FFFFFF;stroke:#001E2D;stroke-width:1.3699;stroke-miterlimit:10.0001;}
	.st3{fill:#FFFFFF;stroke:#001E2D;stroke-width:1.3698;stroke-miterlimit:10;}
	.st4{fill:#D5949D;}
	.st5{fill:#001E2D;stroke:#001E2D;stroke-width:1.3698;stroke-linecap:round;stroke-linejoin:round;stroke-miterlimit:10;}
	.st6{fill:#FFFFFF;stroke:#001E2D;stroke-width:1.3698;stroke-linecap:round;stroke-linejoin:round;stroke-miterlimit:10;}
	.st7{fill:none;stroke:#001E2D;stroke-width:1.3698;stroke-linecap:round;stroke-linejoin:round;stroke-miterlimit:10;}
	.st8{fill:#001E2D;}
	.st9{fill:#30ADC0;stroke:#001E2D;stroke-width:1.3698;stroke-miterlimit:10;}
	.st10{fill:#30ADC0;stroke:#001E2D;stroke-width:1.3698;stroke-linecap:round;stroke-linejoin:round;stroke-miterlimit:10;}
	.st11{fill:#808080;stroke:#545454;stroke-width:1.3698;stroke-linecap:round;stroke-linejoin:round;stroke-miterlimit:10;}
	.st12{fill:#001E2D;stroke:#001E2D;stroke-width:1.3698;stroke-miterlimit:10;}
	.st13{fill:none;stroke:#001E2D;stroke-width:1.8264;stroke-miterlimit:10;}
	.st14{fill:none;stroke:#001E2D;stroke-width:2.7397;stroke-miterlimit:10;}
</style>
<title></title>
<g>
	<g>
		<path class="st0" d="M186.7,476.7c23-7.1,48.8-14.3,81.1-14.4c86.3-0.4,109.8,13,180.2-35.7s80.5-167.3,21.9-256.7"/>
		<path class="st0" d="M340.5,56.5c0,0-82.8-32.2-162.3,13.8c-79.4,46-117.8,140.4-150.9,215.9C5.3,336.4,7.7,387.8,30,427.5"/>
	</g>
	<line class="st0" x1="1" y1="480.7" x2="506.5" y2="480.7"/>
	<g>
		<path class="st1" d="M446.5,429.6c2.1,0.5,6.9-0.3,6.9-0.3s-1.4-2.9-1.5-3c-1.3-2-5-5-7.7-4.2c-1.9,0.6-2.8,2.6-2.2,4.3
			C442.7,428.1,444.8,429.2,446.5,429.6z"/>
		<path class="st1" d="M476.4,479.6c0,0.1,0.1,0.2,0.1,0.3l1.9,0.4c-0.1-0.4-0.3-0.8-0.4-1.2c-0.4-1.2-0.8-2.5-1.3-3.8
			c0.3-0.2,2.1-1.2,3.6-2.3c1.6,1.2,5.3,2.4,5.8,2.5c-0.4,1.2-0.7,2.4-1.1,3.6c-0.3,0.8-0.5,1.5-0.7,2.2l1.8-0.3
			c0.2-0.5,0.3-1,0.5-1.6c0.4-1.3,0.8-2.6,1.1-4c0.5,0,4.8,0.2,6.8-0.5c1.7-0.7,3.8-2,4.4-3.8s-0.3-3.7-2.2-4
			c-2.7-0.4-6.4,3-7.6,5.2c-0.1,0.1-0.7,1.6-1.1,2.5c0.2-0.6,0.3-1.1,0.5-1.7c0.3-1.2,0.6-2.3,0.9-3.6c0.1-0.6,0.2-1.2,0.4-1.8
			c0.1-0.6,0.2-1.3,0.3-1.9c0.2-1.5,0.3-3,0.4-4.5c1,0.2,4.7,0.8,6.5,0.4c1.8-0.4,4-1.4,4.9-3.1c0.9-1.7,0.3-3.8-1.6-4.4
			c-2.6-0.8-6.7,2.1-8.3,4c-0.1,0.1-1.1,1.6-1.6,2.5c0.1-0.9,0.1-1.8,0.1-2.8c0.1-2.7,0.1-5.4,0-8.1c0-0.8,0-1.6,0-2.5
			c0.4,0.1,4.7,0.9,6.8,0.5c1.8-0.4,4-1.4,4.9-3.1c0.9-1.7,0.3-3.8-1.6-4.4c-2.6-0.8-6.7,2.1-8.3,4c-0.1,0.1-1.5,2.3-1.8,2.9
			c0-1.8,0-3.6,0.1-5.4c0.1-2.5,0.4-4.9,0.9-7.2c0.2,0,4.7,0.9,6.8,0.5c1.8-0.4,4-1.4,4.9-3.1c0.9-1.7,0.3-3.8-1.6-4.4
			c-2.6-0.8-6.7,2.1-8.3,4c-0.1,0.2-1.6,2.5-1.9,2.9c0-0.1,0-0.3,0.1-0.4c0.5-2.5,1.3-4.9,2.2-7.1c0.5-1.3,1.1-2.5,1.6-3.6
			c0.8,0.3,4.6,1.4,6.5,1.1c1.8-0.2,4.2-1,5.2-2.6c1.1-1.6,0.7-3.7-1-4.5c-2.4-1.1-6.9,1.4-8.6,3.1c-0.1,0.1-1,1.2-1.6,2
			c0.3-0.5,0.5-1.1,0.8-1.5c1-1.8,2-3.5,2.9-4.9c0.5-0.8,1-1.5,1.5-2.2c1-0.2,4.8-0.9,6.5-1.9c1.6-1,3.3-2.7,3.6-4.6
			c0.2-1.8-1.1-3.5-3.1-3.4c-2.8,0.1-5.6,4.2-6.4,6.6c-0.1,0.2-0.8,3.4-0.7,3.4c0,0,0,0,0.1,0c-0.5,0.6-0.9,1.3-1.5,2.1
			c-0.9,1.4-2,3.1-3,4.9s-2.1,3.8-3,6c-0.9,2.2-1.8,4.6-2.4,7.1v0.1c-0.1-0.8-0.3-2.9-0.4-3.1c-0.6-2.3-3-6.3-5.8-6.4
			c-2,0-3.5,1.7-3.5,3.5c0,1.9,1.6,3.5,3.1,4.5c1.7,1.1,6.1,1.7,6.4,1.8c-0.5,2.4-0.9,4.9-1.1,7.5c-0.1,1.5-0.2,2.9-0.2,4.4
			c-0.1-0.7-0.2-1.3-0.2-1.3c-0.6-2.3-3-6.3-5.8-6.4c-2,0-3.5,1.7-3.5,3.5c0,1.9,1.6,3.5,3.1,4.5c1.5,1,5.3,1.6,6.3,1.7
			c0,0.6,0,1.1,0,1.7c-0.1,2.7-0.1,5.4-0.2,8.1c0,0.9-0.1,1.9-0.2,2.8c-0.1-0.6-0.1-1.1-0.2-1.2c-0.6-2.3-3-6.3-5.8-6.4
			c-2,0-3.5,1.7-3.5,3.5c0,1.9,1.6,3.5,3.1,4.5c1.4,0.9,4.9,1.5,6.1,1.7c-0.1,0.9-0.2,1.9-0.4,2.8c-0.1,0.6-0.2,1.2-0.3,1.8
			c-0.1,0.6-0.3,1.2-0.4,1.8c-0.3,1.2-0.6,2.3-0.9,3.5c-0.2,0.8-0.4,1.5-0.7,2.3c0.1-0.9,0.1-2.7,0.1-2.9c-0.1-1.6-1-4-2.3-5.6
			c0-0.2-0.1-0.5-0.1-0.7c-0.5-1.8-2.4-2.8-4.3-2c-2.6,1.1-3.8,5.8-3.7,8.2c0,0.1,0.3,1.6,0.4,2.6c-0.2-0.5-0.4-1.1-0.6-1.6
			c-0.4-1.1-0.8-2.2-1.3-3.3c-0.2-0.5-0.5-1.1-0.7-1.7c-0.2-0.6-0.6-1.1-0.8-1.7c-0.7-1.3-1.4-2.6-2.2-3.9c1-0.4,4.6-1.9,5.9-3.2
			c1.3-1.3,2.7-3.3,2.5-5.2c-0.2-1.8-1.9-3.2-3.8-2.7c-2.7,0.7-4.6,5.3-4.9,7.7c0,0.1,0,1.9,0,2.8c-0.5-0.8-0.9-1.5-1.5-2.3
			c-1.5-2.2-3-4.3-4.6-6.5c-0.5-0.7-0.9-1.3-1.4-2c0.4-0.1,4.6-1.8,6.1-3.2c1.3-1.3,2.7-3.3,2.5-5.2c-0.2-1.8-1.9-3.2-3.8-2.7
			c-2.7,0.7-4.6,5.3-4.9,7.7c0,0.2,0,2.7,0,3.3c-1-1.5-2-2.9-3-4.4c-1.3-2-2.4-4.1-3.4-6.2c0.2-0.1,4.6-1.8,6.2-3.3
			c1.3-1.3,2.7-3.3,2.5-5.2c-0.2-1.8-1.9-3.2-3.8-2.7c-2.7,0.7-4.6,5.3-4.9,7.7c0,0.2,0,2.9,0,3.3c-0.1-0.1-0.1-0.2-0.2-0.4
			c-1-2.3-1.6-4.6-2.1-6.8c-0.3-1.3-0.5-2.5-0.7-3.8c0.9-0.2,4.8-1.4,6.3-2.6c1.5-1.2,3-3,3.1-4.9c0-1.8-1.5-3.4-3.5-3.1
			c-2.8,0.4-5.2,4.8-5.7,7.1c0,0.1-0.2,1.5-0.3,2.4c-0.1-0.6-0.1-1.1-0.2-1.7c-0.2-2-0.3-3.8-0.3-5.5c0-0.9,0-1.8,0-2.6
			c0.7-0.6,3.7-3.3,4.5-5s1.4-3.9,0.5-5.6c-0.9-1.6-3-2.2-4.7-1.1c-2.3,1.6-2.5,6.4-1.8,8.7c0.1,0.2,1.3,3.1,1.3,3.1l0,0
			c0,0.8-0.1,1.6-0.1,2.5c0,1.6,0,3.5,0.2,5.5c0.2,2,0.4,4.2,0.8,6.5c0.4,2.3,1,4.6,2,7v0.1c-0.5-0.6-2-2.2-2.1-2.3
			c-1.8-1.5-6.2-3.4-8.7-2c-1.7,1-2.1,3.2-1,4.7c1.1,1.5,3.4,2,5.3,1.9c2.1,0,6.3-1.9,6.6-2.1c0.9,2.2,2.1,4.4,3.3,6.5
			c0.7,1.2,1.5,2.4,2.3,3.6c-0.4-0.5-0.9-0.9-0.9-1c-1.8-1.5-6.2-3.4-8.7-2c-1.7,1-2.1,3.2-1,4.7c1.1,1.5,3.4,2,5.3,1.9
			c1.9,0,5.5-1.6,6.4-2c0.3,0.5,0.6,0.9,0.9,1.4c1.5,2.2,3,4.4,4.4,6.6c0.5,0.8,1,1.5,1.4,2.3c-0.4-0.4-0.7-0.8-0.8-0.9
			c-1.8-1.5-6.2-3.4-8.7-2c-1.7,1-2.1,3.2-1,4.7c1.1,1.5,3.4,2,5.3,1.9c1.8,0,5.1-1.4,6.2-1.9c0.4,0.8,0.9,1.6,1.3,2.4
			c0.3,0.6,0.5,1.1,0.8,1.7c0.2,0.6,0.5,1.1,0.7,1.7c0.4,1.1,0.8,2.2,1.2,3.3c0.3,0.7,0.5,1.5,0.7,2.2c-0.5-0.8-1.5-2.3-1.6-2.4
			c-1.5-1.8-5.6-4.3-8.2-3.3c-1.9,0.8-2.5,2.9-1.7,4.5c0.8,1.6,3,2.5,4.9,2.7c2,0.3,6.2-0.9,6.7-1.1
			C475.8,477.4,476.1,478.5,476.4,479.6z"/>
		<path class="st1" d="M495.3,423.1c0,0,0.6-3.2,0.6-3.4c0.1-2.4-1.2-7-3.8-7.7c-1.9-0.6-3.8,0.8-4.2,2.6c-0.5,1.9,0.6,3.9,1.7,5.2
			C491,421.2,495.3,423.1,495.3,423.1z"/>
	</g>
	<g>
		<path class="st1" d="M6.5,451.8c1.2,0.3,3.9-0.2,3.9-0.2s-0.8-1.6-0.8-1.7c-0.7-1.1-2.8-2.8-4.4-2.4c-1.1,0.3-1.6,1.5-1.3,2.5
			C4.3,450.9,5.5,451.5,6.5,451.8z"/>
		<path class="st1" d="M23.6,480.4c0,0.1,0,0.1,0,0.2l1.1,0.2c-0.1-0.2-0.1-0.5-0.2-0.7c-0.2-0.7-0.5-1.4-0.7-2.2
			c0.2-0.1,1.2-0.7,2-1.3c0.9,0.7,3.1,1.4,3.3,1.5c-0.2,0.7-0.4,1.4-0.6,2c-0.1,0.4-0.3,0.9-0.4,1.3l1-0.2c0.1-0.3,0.2-0.6,0.3-0.9
			c0.2-0.7,0.4-1.5,0.7-2.3c0.3,0,2.8,0.1,3.9-0.3c1-0.4,2.2-1.1,2.5-2.2c0.4-1-0.2-2.1-1.3-2.3c-1.5-0.2-3.6,1.7-4.4,2.9
			c0,0.1-0.4,0.9-0.6,1.4c0.1-0.3,0.2-0.6,0.3-1c0.2-0.7,0.3-1.3,0.5-2c0.1-0.3,0.1-0.7,0.2-1s0.1-0.7,0.2-1.1
			c0.1-0.8,0.2-1.7,0.3-2.6c0.6,0.1,2.7,0.5,3.7,0.2c1-0.2,2.3-0.8,2.8-1.8c0.5-1,0.2-2.2-0.9-2.5c-1.5-0.5-3.8,1.2-4.7,2.3
			c-0.1,0.1-0.6,0.9-0.9,1.4c0-0.5,0.1-1,0.1-1.6c0-1.5,0-3.1,0-4.6c0-0.5,0-0.9,0-1.4c0.2,0,2.7,0.5,3.9,0.3c1-0.2,2.3-0.8,2.8-1.8
			c0.5-1,0.2-2.2-0.9-2.5c-1.5-0.5-3.8,1.2-4.7,2.3c-0.1,0.1-0.9,1.3-1.1,1.6c0-1,0-2.1,0.1-3.1c0.1-1.4,0.2-2.8,0.5-4.1
			c0.1,0,2.7,0.5,3.9,0.3c1-0.2,2.3-0.8,2.8-1.8c0.5-1,0.2-2.2-0.9-2.5c-1.5-0.5-3.8,1.2-4.7,2.3c-0.1,0.1-0.9,1.4-1.1,1.7
			c0-0.1,0-0.2,0-0.2c0.3-1.4,0.8-2.8,1.3-4c0.3-0.7,0.6-1.4,0.9-2.1c0.5,0.1,2.6,0.8,3.7,0.7c1.1-0.1,2.4-0.6,3-1.5
			s0.4-2.1-0.6-2.6c-1.4-0.6-3.9,0.8-4.9,1.8c-0.1,0.1-0.6,0.7-0.9,1.1c0.2-0.3,0.3-0.6,0.4-0.9c0.6-1.1,1.1-2,1.7-2.8
			c0.3-0.5,0.6-0.9,0.8-1.3c0.6-0.1,2.8-0.5,3.7-1.1s1.9-1.5,2-2.6c0.1-1.1-0.6-2-1.8-2c-1.6,0.1-3.2,2.4-3.7,3.7
			c0,0.1-0.4,2-0.4,1.9l0,0c-0.3,0.4-0.5,0.8-0.8,1.2c-0.5,0.8-1.1,1.7-1.7,2.8c-0.6,1-1.2,2.2-1.7,3.5c-0.5,1.3-1,2.6-1.4,4.1
			c0,0,0,0,0,0.1c0-0.4-0.2-1.7-0.2-1.8c-0.3-1.3-1.7-3.6-3.3-3.6c-1.1,0-2,1-2,2c0,1.1,0.9,2,1.8,2.6c1,0.6,3.5,1,3.7,1
			c-0.3,1.4-0.5,2.8-0.6,4.3c-0.1,0.8-0.1,1.7-0.1,2.5c0-0.4-0.1-0.7-0.1-0.8c-0.3-1.3-1.7-3.6-3.3-3.6c-1.1,0-2,1-2,2
			c0,1.1,0.9,2,1.8,2.6s3,0.9,3.6,1c0,0.3,0,0.6,0,1c0,1.5-0.1,3.1-0.1,4.6c0,0.5-0.1,1.1-0.1,1.6c0-0.3-0.1-0.6-0.1-0.7
			c-0.3-1.3-1.7-3.6-3.3-3.6c-1.1,0-2,1-2,2c0,1.1,0.9,2,1.8,2.6c0.8,0.5,2.8,0.9,3.5,1c-0.1,0.5-0.1,1.1-0.2,1.6
			c-0.1,0.4-0.1,0.7-0.2,1.1c-0.1,0.4-0.2,0.7-0.2,1c-0.2,0.7-0.3,1.3-0.5,2c-0.1,0.4-0.3,0.9-0.4,1.3c0-0.5,0.1-1.6,0.1-1.7
			c-0.1-0.9-0.6-2.3-1.3-3.2c0-0.1,0-0.3-0.1-0.4c-0.3-1-1.4-1.6-2.4-1.2c-1.5,0.6-2.2,3.3-2.1,4.7c0,0.1,0.1,0.9,0.2,1.5
			c-0.1-0.3-0.2-0.6-0.3-0.9c-0.2-0.6-0.5-1.2-0.7-1.9c-0.1-0.3-0.3-0.6-0.4-0.9c-0.1-0.3-0.3-0.6-0.5-1c-0.4-0.7-0.8-1.5-1.3-2.2
			c0.6-0.2,2.6-1.1,3.4-1.8c0.8-0.7,1.5-1.9,1.4-2.9c-0.1-1-1.1-1.8-2.2-1.5c-1.5,0.4-2.7,3-2.8,4.4c0,0.1,0,1.1,0,1.6
			c-0.3-0.4-0.5-0.9-0.8-1.3c-0.8-1.2-1.7-2.5-2.6-3.7c-0.3-0.4-0.5-0.8-0.8-1.1c0.2-0.1,2.6-1,3.5-1.9c0.8-0.7,1.5-1.9,1.4-2.9
			c-0.1-1-1.1-1.8-2.2-1.5c-1.5,0.4-2.7,3-2.8,4.4c0,0.1,0,1.5,0,1.9c-0.6-0.8-1.2-1.7-1.7-2.5c-0.7-1.2-1.4-2.4-1.9-3.6
			c0.1,0,2.6-1,3.5-1.9c0.8-0.7,1.5-1.9,1.4-2.9s-1.1-1.8-2.2-1.5c-1.5,0.4-2.7,3-2.8,4.4c0,0.1,0,1.6,0,1.9c0-0.1-0.1-0.1-0.1-0.2
			c-0.6-1.3-0.9-2.6-1.2-3.9c-0.2-0.7-0.3-1.5-0.4-2.2c0.5-0.1,2.7-0.8,3.6-1.5c0.8-0.7,1.7-1.7,1.7-2.8c0-1.1-0.9-1.9-2-1.8
			c-1.6,0.2-3,2.7-3.3,4.1c0,0.1-0.1,0.8-0.2,1.4c0-0.3-0.1-0.6-0.1-0.9c-0.1-1.1-0.1-2.2-0.2-3.1c0-0.5,0-1,0-1.5
			c0.4-0.4,2.1-1.9,2.6-2.9c0.5-0.9,0.8-2.3,0.3-3.2c-0.5-0.9-1.7-1.3-2.7-0.6c-1.3,0.9-1.4,3.7-1,5c0,0.1,0.7,1.8,0.8,1.8l0,0
			c0,0.4,0,0.9,0,1.4c0,0.9,0,2,0.1,3.2c0.1,1.1,0.2,2.4,0.5,3.7c0.3,1.3,0.6,2.6,1.1,4l0,0c-0.3-0.3-1.1-1.2-1.2-1.3
			c-1-0.9-3.6-2-5-1.1c-1,0.6-1.2,1.8-0.6,2.7s2,1.1,3,1.1c1.2,0,3.6-1.1,3.8-1.2c0.5,1.3,1.2,2.5,1.9,3.7c0.4,0.7,0.9,1.4,1.3,2.1
			c-0.3-0.3-0.5-0.5-0.5-0.6c-1-0.9-3.6-2-5-1.1c-1,0.6-1.2,1.8-0.6,2.7c0.6,0.9,2,1.1,3,1.1c1.1,0,3.1-0.9,3.7-1.1
			c0.2,0.3,0.4,0.5,0.5,0.8c0.9,1.3,1.7,2.5,2.5,3.7c0.3,0.4,0.5,0.9,0.8,1.3c-0.2-0.2-0.4-0.5-0.5-0.5c-1-0.9-3.6-2-5-1.1
			c-1,0.6-1.2,1.8-0.6,2.7c0.6,0.9,2,1.1,3,1.1c1,0,2.9-0.8,3.6-1.1c0.3,0.5,0.5,0.9,0.7,1.4c0.1,0.3,0.3,0.6,0.4,0.9
			c0.1,0.3,0.3,0.6,0.4,1c0.2,0.6,0.5,1.3,0.7,1.9c0.1,0.4,0.3,0.8,0.4,1.2c-0.3-0.4-0.8-1.3-0.9-1.4c-0.9-1-3.2-2.5-4.7-1.9
			c-1.1,0.4-1.4,1.7-1,2.6c0.5,0.9,1.7,1.4,2.8,1.5c1.1,0.2,3.5-0.5,3.8-0.6C23.2,479.1,23.4,479.7,23.6,480.4z"/>
		<path class="st1" d="M34.4,448c0,0,0.3-1.8,0.3-2c0.1-1.4-0.7-4-2.1-4.4c-1.1-0.3-2.1,0.4-2.4,1.5s0.3,2.2,1,3
			C31.9,447,34.4,448,34.4,448z"/>
	</g>
	<g>
		<ellipse class="st2" cx="39.9" cy="114.1" rx="17.2" ry="17.2"/>
		<path class="st3" d="M46,112.1c0,3.4-2.7,6.1-6.1,6.1c-3.4,0-6.1-2.7-6.1-6.1c0-3.4,2.7-6.1,6.1-6.1C43.2,106,46,108.7,46,112.1z"
			/>
		<path class="st3" d="M39.9,131.2c3.9,0,7.5-1.3,10.4-3.5c-0.8-5-5.2-8.8-10.4-8.8s-9.5,3.8-10.4,8.8
			C32.5,129.9,36,131.2,39.9,131.2z"/>
	</g>
	<g>
		<circle class="st3" cx="39.9" cy="157.2" r="17.2"/>
		<path class="st3" d="M46,155.2c0,3.4-2.7,6.1-6.1,6.1c-3.4,0-6.1-2.7-6.1-6.1c0-3.4,2.7-6.1,6.1-6.1C43.2,149.1,46,151.9,46,155.2
			z"/>
		<path class="st3" d="M39.9,174.4c3.9,0,7.5-1.3,10.4-3.5c-0.8-5-5.2-8.8-10.4-8.8s-9.5,3.8-10.4,8.8C32.5,173,36,174.4,39.9,174.4
			z"/>
	</g>
	<g>
		<circle class="st3" cx="39.9" cy="200.3" r="17.2"/>
		<path class="st3" d="M46,198.4c0,3.4-2.7,6.1-6.1,6.1c-3.4,0-6.1-2.7-6.1-6.1c0-3.4,2.7-6.1,6.1-6.1C43.2,192.3,46,195.1,46,198.4
			z"/>
		<path class="st3" d="M39.9,217.6c3.9,0,7.5-1.3,10.4-3.5c-0.8-5-5.2-8.8-10.4-8.8s-9.5,3.8-10.4,8.8
			C32.5,216.3,36,217.6,39.9,217.6z"/>
	</g>
	<g>
		<ellipse class="st2" cx="39.8" cy="243.5" rx="17.2" ry="17.2"/>
		<path class="st3" d="M46,241.6c0,3.4-2.7,6.1-6.1,6.1c-3.4,0-6.1-2.7-6.1-6.1c0-3.4,2.7-6.1,6.1-6.1C43.2,235.5,46,238.2,46,241.6
			z"/>
		<path class="st3" d="M39.9,260.7c3.9,0,7.5-1.3,10.4-3.5c-0.8-5-5.2-8.8-10.4-8.8s-9.5,3.8-10.4,8.8
			C32.5,259.4,36,260.7,39.9,260.7z"/>
	</g>
	<g>
		<g>
			<rect x="407.9" y="88" class="st3" width="73.6" height="5"/>
			<rect x="407.9" y="97.9" class="st3" width="36.5" height="5"/>
			<rect x="407.9" y="107.8" class="st3" width="49.7" height="5"/>
			<rect x="407.9" y="117.7" class="st3" width="30.7" height="5"/>
			<rect x="407.9" y="127.6" class="st3" width="56.4" height="5"/>
			<rect x="407.9" y="137.5" class="st3" width="39.2" height="5"/>
			<rect x="407.9" y="147.4" class="st3" width="43.9" height="5"/>
		</g>
		<line class="st0" x1="408.5" y1="78.6" x2="445.5" y2="78.6"/>
		<line class="st0" x1="408.5" y1="72.3" x2="445.5" y2="72.3"/>
	</g>
	<g>
		<polyline class="st0" points="172.7,100.2 214.5,27.8 224.7,27.8 		"/>
		<g>
			<line class="st0" x1="234.3" y1="28.4" x2="260.1" y2="28.4"/>
			<line class="st0" x1="234.3" y1="34.8" x2="260.1" y2="34.8"/>
			<line class="st0" x1="234.3" y1="41.2" x2="260.1" y2="41.2"/>
		</g>
	</g>
	<g>
		<rect x="241.9" y="64.1" class="st3" width="142" height="209.3"/>
		<circle class="st3" cx="309.2" cy="129.8" r="45.4"/>
		<line class="st0" x1="262.2" y1="190" x2="358" y2="190"/>
		<line class="st0" x1="262.2" y1="199.6" x2="358" y2="199.6"/>
		<g>
			<g>
				<line class="st0" x1="273.9" y1="216.1" x2="358" y2="216.1"/>
				<rect x="263.6" y="212.5" class="st4" width="5.7" height="5.7"/>
			</g>
			<g>
				<line class="st0" x1="273.9" y1="228.4" x2="358" y2="228.4"/>
				<rect x="263.6" y="224.7" class="st4" width="5.7" height="5.7"/>
			</g>
			<g>
				<line class="st0" x1="273.9" y1="240.7" x2="358" y2="240.7"/>
				<rect x="263.6" y="237.1" class="st4" width="5.7" height="5.7"/>
			</g>
			<g>
				<line class="st0" x1="273.9" y1="253" x2="358" y2="253"/>
				<rect x="263.6" y="249.4" class="st4" width="5.7" height="5.7"/>
			</g>
		</g>
		<g>
			<path class="st5" d="M299.2,99.6c0,0,6-10.2,19.1-9.8c13.2,0.4,16.3,14.8,15.9,19.1c-0.4,4.3-1.9,7-1.9,7l-5.8-4.9
				c0,0,5.8,5.4,9,13.8c3.2,8.5,1.7,19.5-2.4,22c-4,2.6-6.8,1.5-6.8,1.5l0.4-5.8c0,0-3.8,6.8-10.2,8.1c-6.4,1.3-24.6,2.1-27.4-1.1
				c-2.8-3.2-3.4-6.8-3.4-6.8l-0.4,5.5c0,0-5.8-4.3-6-9.2c-0.2-4.9,2.8-11.7,4.3-15.2c1.5-3.6,2.6-5.5,3-11.1
				c0.4-5.5-0.2-8.5,3.6-12.1C294.1,97.3,299.2,99.6,299.2,99.6z"/>
			<g>
				<path class="st6" d="M290.3,157.5c-3.5,1.5-9.3,2.9-13.1,4.6c8.2,8.2,19.5,13.2,32,13.2c12.5,0,23.6-5,31.9-13.1
					c-1-0.5-2.4-1.1-4.7-1.7c-6.8-1.9-16.4-7.4-17.6-9.3c-1.1-1.9-2.3-8.5-2.3-8.5l-15.7-2.1c0,0,0.8,8.3,0.8,9.8
					S295.7,155.2,290.3,157.5z"/>
				<path class="st6" d="M296.9,122.3c0,0,1.3-9.6,4.3-14.6c3-5.1,9.4-3.6,11.9-1.9c2.6,1.7,6.6,10.9,8.9,16.7
					c2.3,6,3.4,9.4,3.4,9.4s-3.7,7.8-8.7,10.9c-5.4,3.3-11.2,3.2-15.7-2.1c-2.6-3-3.8-6.2-3.8-6.2s-5.3-1.7-6.6-6.2
					c-1.3-4.5-0.2-6.8,1.9-7.5C294.6,120.2,296.9,122.3,296.9,122.3z"/>
				<path class="st7" d="M313.4,119.1c0,0-0.2,3.2,1.5,5.5s0.2,4.9-2.8,4.3"/>
				<path class="st7" d="M314.9,132.8c0,0-7.2,3.4-10.7-3.4"/>
				<path class="st8" d="M305.6,122.5c0,0.9,0.4,1.7,0.9,1.7c0.5,0,0.9-0.8,0.9-1.7c0-0.9-0.4-1.7-0.9-1.7
					C306,120.8,305.6,121.6,305.6,122.5z"/>
				<path class="st8" d="M316,122.5c0,0.9,0.4,1.7,0.9,1.7c0.5,0,0.9-0.8,0.9-1.7c0-0.9-0.4-1.7-0.9-1.7
					C316.4,120.8,316,121.6,316,122.5z"/>
				<path class="st7" d="M308.1,115.2c0,0-2.3-1.7-4.9,0.6"/>
				<path class="st7" d="M314.3,115.6c0,0,1.7-1.9,4-0.9"/>
			</g>
			<path class="st9" d="M326.4,156.3l-16.4,15.6L294,155.8c-1.2,0.6-2.4,1.2-3.7,1.7c-3.5,1.5-9.3,2.9-13.1,4.6
				c8.2,8.2,19.5,13.2,32,13.2c12.5,0,23.6-5,31.9-13.1c-1-0.5-2.4-1.1-4.7-1.7C333.3,159.7,329.7,158,326.4,156.3z"/>
		</g>
	</g>
	<g>
		<g>
			<rect x="78.3" y="64.1" class="st3" width="142" height="209.3"/>
			<line class="st0" x1="98.6" y1="190" x2="194.5" y2="190"/>
			<line class="st0" x1="98.6" y1="199.6" x2="194.5" y2="199.6"/>
			<g>
				<line class="st0" x1="110.3" y1="216.1" x2="194.5" y2="216.1"/>
				<rect x="100" y="212.5" class="st4" width="5.7" height="5.7"/>
			</g>
			<g>
				<line class="st0" x1="110.3" y1="228.4" x2="194.5" y2="228.4"/>
				<rect x="100" y="224.7" class="st4" width="5.7" height="5.7"/>
			</g>
			<g>
				<line class="st0" x1="110.3" y1="240.7" x2="194.5" y2="240.7"/>
				<rect x="100" y="237.1" class="st4" width="5.7" height="5.7"/>
			</g>
			<g>
				<line class="st0" x1="110.3" y1="253" x2="194.5" y2="253"/>
				<rect x="100" y="249.4" class="st4" width="5.7" height="5.7"/>
			</g>
		</g>
		<g>
			<circle class="st3" cx="145.8" cy="129.8" r="45.4"/>
			<path class="st5" d="M122,149.7l-11.4,9.1c8.4,10.1,20.9,16.4,35,16.4c13.7,0,26.1-6.1,34.5-15.7l-17.2-11.3L122,149.7z"/>
			<g>
				<g>
					<path class="st10" d="M136.3,136.9c0,0-10,1.3-12.8,5.4c-2.8,4.1-4.8,8-2.8,10.4c2,2.4,7.8,7.6,11.2,9.9
						c3.3,2.2,8.6,9.9,8.6,9.9s0.7-5.6,0.7-9.7c0-4.1-3.5-8.6-4.3-12.3c-0.7-3.7,5.4-9.7,9.7-7.8s7.6,7.4,7.4,10
						c-0.2,2.6,0.7,5.8,1.7,10.2c0.9,4.5,1.7,8.3,1.7,8.3s6.3-6.4,8.4-13.3c2-6.9,1.1-13.8-6.5-18.5
						C151.5,134.7,136.3,136.9,136.3,136.9z"/>
					<path class="st6" d="M162.4,141.9c-0.9-0.9-2-1.8-3.3-2.5c-7.6-4.6-22.8-2.4-22.8-2.4s-10,1.3-12.8,5.4
						c-0.3,0.5-0.6,0.9-0.9,1.4c-0.3,2,0,4.4,1.7,7.1c4.2,6.6,12.8,9.8,16.8,11.7c-0.1-4-3.5-8.4-4.3-12c-0.7-3.7,5.4-9.7,9.7-7.8
						s7.6,7.4,7.4,10c-0.2,2.6,0.7,5.8,1.7,10.2c0.1,0.3,0.1,0.5,0.2,0.8c0.3-0.3,0.6-0.6,1-1c4.8-5.4,6.3-11.3,6.3-16.4
						C163,144.6,162.7,143.2,162.4,141.9z"/>
				</g>
				<g>
					<path class="st6" d="M134.6,129.7c0,0,1.1,13.3,1.5,17c0.4,3.7,2.4,13.2,8.7,15c6.3,1.9,10-5.4,9.1-10.8
						c-0.9-5.4-2.6-10.4-2.6-12.3c0-1.9-0.2-2.4-0.2-2.4L134.6,129.7z"/>
					<path class="st5" d="M151.1,136.4l-16.4-6.7c0,0,0.8,10.2,1.3,15.2l15.3-6.5C151.2,136.9,151.1,136.4,151.1,136.4z"/>
				</g>
				<g>
					<g>
						<path class="st6" d="M155,104.7c0,0,3,16.2,3,19.2s-2.7,11.6-4,13.5c-1.2,2-7.4,3.2-9.9,2.2c-2.5-1-9.4-7.4-10.9-10.1
							s-2-5.2-2-5.2s-3.5,1.5-6.2-2.5c-2.7-4-1.2-7.7,1.5-7.9l2.5,0.7c0,0-4.5-7.7-3-11.1c1.5-3.5,19.2-4.7,22.9-4.7
							C152.7,99,155,104.7,155,104.7z"/>
						<path class="st5" d="M141.6,108.8l-3.9,1.7c-0.6,0.3-0.8,1-0.5,1.5l0.1,0.3c0.3,0.5,0.9,0.7,1.4,0.4l3.8-2
							c0.5-0.3,0.7-1,0.4-1.5l0,0C142.7,108.7,142.1,108.5,141.6,108.8z"/>
						<path class="st5" d="M148.8,107.9L148.8,107.9c-0.1,0.5,0.1,1,0.6,1.2l3,0.7c0.5,0.1,1.1-0.3,1.1-0.9l0,0
							c0-0.4-0.3-0.8-0.7-0.8l-3-0.8C149.4,107.2,148.9,107.4,148.8,107.9z"/>
						<path class="st11" d="M156.9,129.4c0,0-0.5-5.6-1.6-6.5c-1.1-0.8-9.5-0.2-9.5-0.2s-8.5-2.4-8.7-0.5c-0.1,1.4,0.3,9,0.6,12.5
							c2.4,2.3,5.1,4.4,6.4,5c2.5,1,8.7-0.2,9.9-2.2C154.8,136.4,156,132.8,156.9,129.4L156.9,129.4z M155,130.4
							c-1,3.2-3.1,5.2-4,4.7c-1-0.5-1.8-3.5-2.6-3.9c-0.8-0.3-1.5,1.3-2.4,2.7c-1,1.5-3.5,1.9-4.7,1c-1.1-1-2.4-9.8-2.4-11
							c0-1.1,11.8,0.6,11.8,0.6s2.9-0.3,3.7-0.2C155.2,124.5,156,127.1,155,130.4z"/>
						<path class="st7" d="M140.9,124.7c0,0,4.7,3.2,9.7,2.1"/>
						<path class="st6" d="M147.9,111.3c0,0,2.3,9.8,2.4,10.6c0.2,0.8-1.6,3.4-3.5,1.9c-1.9-1.5-2.3-2.9-2.3-2.9"/>
						<path class="st8" d="M143,116c0.3,0.9,0.2,1.6-0.2,1.8c-0.4,0.1-0.9-0.5-1.2-1.3c-0.3-0.9-0.2-1.6,0.2-1.8
							C142.2,114.6,142.7,115.2,143,116z"/>
						<path class="st8" d="M152.4,114.7c0.1,0.9-0.1,1.6-0.5,1.7c-0.4,0-0.8-0.6-0.9-1.5c-0.1-0.9,0.1-1.6,0.5-1.7
							C151.9,113.2,152.3,113.8,152.4,114.7z"/>
					</g>
					<path class="st5" d="M125.1,94.1c0,0-6.4,6.4-4,11.9c2.5,5.4,8.7,15.5,8.7,15.5h1.2l-0.2-4.2c0,0,4-1.5,3.2-5
						c-0.7-3.5-2.5-5.7-2.5-5.7s4.2,3.2,9.2,2.5s7.2-6.7,8.9-4.7c1.7,2,4.5,3.2,9.7,0.5c5.2-2.7,8.5-11.9,2.8-15.6
						c-5.7-3.7-11-0.4-13.9,0.3c-3,0.7-5.2-4.2-11.9-2.2C129.6,89.5,125.1,94.1,125.1,94.1z"/>
				</g>
			</g>
		</g>
	</g>
	<g>
		<path class="st12" d="M418,206.7c0,0-10.7,2-12.8,7.6c-2.1,5.6,1.1,7.2,1.1,7.2s-8.7,4.7-7,10.2c1.7,5.5,7.8,8.2,7.8,8.2
			s2.4,1.7,2,2.7c-0.5,1.1-2,0.8-2,0.8s3,2.9,7.6,4c4.6,1.1,11.9,2.4,18.2,1.1c6.4-1.4,11.3-4.4,11.3-4.4s-4.3,0.3-2.4-2.6
			c1.8-2.9,9.3-4.1,8.4-12.6c-0.9-8.5-3.5-7.5-5.5-11.1c-2-3.7,0.6-6.2-5.5-10.5c-6.1-4.3-16.7-7.5-20-6.2
			C415.7,202.1,418,206.7,418,206.7z"/>
		<g>
			<path class="st9" d="M398.4,303.2c0,0-11,13.9-12.5,34.1c-1.6,20.1,12.8,63.1,13.1,64.8c0.3,1.7,1.9,16.8,7.4,29.4
				c5.5,12.6,9.1,31.6,9.1,31.6s-0.9,4-0.9,4.5c0,0.5-7.1,7.2-9.5,8.6s-7.6,1.9-7.4,4.3c0.2,2.4,11.7,2.8,15.4,2.6
				c3.8-0.2,12.4-1.4,13.5-1.4c1.2,0,6.7,0.3,6.6-3.1c-0.2-3.4-4.9-18-4.9-18s-3.2-22.3-3.2-29.4c0-7.1-0.3-23.7-0.3-23.7
				s12.8,27.1,15.4,34.6c2.8,7.4,5.5,18,5.9,19.2c0.3,1.2,1.2,14.4,5,18.9s6.2,4.1,8.5,4.2c2.5,0.1,5.9-2.3,3.9-8.5
				c-2.1-6.2-7.2-10.5-8.3-16.6c-1-6.2-1.6-21.6-1.6-37.5c0-15.8-6.2-31.6-6.2-31.6s4.7-26.8,2.4-47.4
				c-2.2-20.6-10.5-35.9-10.5-35.9l-0.6-2.2l-39.2-3.8L398.4,303.2z"/>
			<g>
				<path class="st0" d="M422.3,393.2c-1.5-6.3-3.4-15.4-3.7-20.3c-0.4-8-0.2-29.9-0.2-29.9"/>
				<path class="st0" d="M423.9,399.9c0,0-0.4-1.4-0.9-3.7"/>
				<path class="st0" d="M406.3,332.9c2.3,3.4,5.7,7.7,8.8,9"/>
				<path class="st0" d="M403.6,328.7c0,0,0.5,0.8,1.2,2.1"/>
				<line class="st0" x1="421.4" y1="339.8" x2="430.6" y2="327.8"/>
			</g>
			<path class="st3" d="M431.8,472c-1.1,0.2-2.3,0.3-4.8,0.2c-6-0.2-12.5-4.8-12.5-4.8c0,0.5-7.1,7.2-9.5,8.6s-7.6,1.9-7.4,4.3
				c0.2,2.4,11.7,2.8,15.4,2.6c3.8-0.2,12.4-1.4,13.5-1.4c1.2,0,6.7,0.3,6.6-3.1C433.3,477.3,432.8,473.8,431.8,472z"/>
			<path class="st3" d="M456.5,462.7c-1.1,1.8-2.5,4.1-4.6,4.3c-2.6,0.2-4.4-1.9-5.3-3.1c0.6,4.5,1.8,12.8,4.6,16
				c3.8,4.5,6.2,4.1,8.5,4.2c2.5,0.1,5.9-2.3,3.9-8.5C462,470.8,458.4,467.1,456.5,462.7z"/>
		</g>
		<path class="st3" d="M415.1,238.1c0,0,0.6,8.8,0.2,10.4c-0.5,1.5-5.8,1.7-6.7,1.4c-0.9-0.3-7.2-1.5-10.2,0s-7,8.2-7.8,9.6
			c-0.8,1.4-3,3.4-3,3.4s-5.5-21.1-5.5-22.7c0-1.7,1.1-6.7-2.4-13.3c-3.5-6.6-6.2-10.8-8.8-12.8c-2.6-2-5.2-2.1-5.3-0.6
			c-0.2,1.5,1.1,2.4,2,3.5c0.9,1.1,3.2,5.8,3.2,5.8s-5.6,9.3-5.8,11.4c-0.2,2.1-0.5,2.6,1.1,4.3c1.5,1.7,6.7,4.3,6.7,4.3
			s-0.3,7.2,0.8,13.5c1.1,6.4-1.7,15.4,2.3,23.4c4,7.9,9.6,9.7,10.5,9c0.9-0.7,10.8-7.6,10.8-7.6s1.2,15.1,1.4,15.7
			c0.2,0.6-0.8,5,0,6.7c0.8,1.7,3.4,5,17.3,5.8c13.9,0.8,23.1-1.1,23.8-2.3c0.7-1.2,0.5-3.4,0.5-4.4c0-1.1,2.3-17.3,2.3-17.3
			s5,12,5.6,13.6c0.6,1.7,1.8,6.2,1.8,6.2s-0.5,11.7,1.5,17c2,5.3,4.3,10.5,4.3,10.5l2.7,17.3c0,0-1.5,3-1.2,5.2
			c0.3,2.1,0.9,7.2,0.9,7.9s0,3,1.2,3.4c1.2,0.3,2.3-2.9,2.3-2.9s0.8,5.9,0.6,6.9c-0.2,0.9,1.4,3.8,2.7,0.8c0.5-1.1,0.9-3,1.2-3.7
			c0.3-0.6,1.8-3.8,2.3-6.1c0.5-2.3,0.7-4.7-1-10.1c-0.4-1.3-1.7-4-1.7-4.4c0-0.5,0.8-20.8-0.1-28.8c-0.9-7.9-3.5-14.8-3.5-14.8
			s-3.7-23.8-3.7-24.7c0-0.9,0.6-12-3.4-17.3c-4-5.3-11-6.4-15.1-7.5c-4.3-1.1-8.8-2.7-9.6-3.2s-0.9-10.5-0.9-10.5L415.1,238.1z"/>
		<path class="st3" d="M389.8,285.8c3.2-2.2,7.3-5.1,7.3-5.1s1.2,15.1,1.4,15.7c0.2,0.6-0.8,5,0,6.7c0.8,1.7,3.4,5,17.3,5.8
			s23.1-1.1,23.8-2.3c0.8-1.2,0.5-3.4,0.5-4.4c0-1.1,2.3-17.3,2.3-17.3s4.1,9.7,5.3,12.9c3.1-0.4,8-1.4,12.9-4.2
			c-1-6.8-2.2-14.8-2.2-15.3c0-0.9,0.6-12-3.4-17.3c-4-5.3-11-6.4-15.1-7.5c-4.3-1.1-8.8-2.7-9.6-3.2c-0.8-0.5-0.9-10.5-0.9-10.5
			l-14.1-1.8c0,0,0.6,8.8,0.2,10.4c-0.5,1.5-5.8,1.7-6.7,1.4c-0.9-0.3-7.2-1.5-10.2,0c-3,1.5-7,8.2-7.8,9.6c-0.8,1.4-3,3.4-3,3.4
			s4.6,6.1,4.4,12.6C391.9,280,390.8,283.8,389.8,285.8z"/>
		<path class="st3" d="M438.3,253.1c-3.8-1-7.4-2.4-8.1-2.8c-0.8-0.5-0.9-10.5-0.9-10.5l-14.1-1.8c0,0,0.6,8.8,0.2,10.4
			c-0.4,1.4-4.8,1.6-6.3,1.4c0,3.4,1.2,11.1,10.3,12.9C427,264.2,434.3,257.7,438.3,253.1z"/>
		<polygon class="st12" points="421.8,243.9 415.7,244.3 415.1,238.1 		"/>
		<path class="st0" d="M419.2,262.7c0,0-3.2,12.6-2.7,15.9"/>
		<path class="st0" d="M397.8,265.1c0.8-1.9,1.6-3.2,1.6-3.2"/>
		<path class="st0" d="M397,280.7c0,0-1.4-2.9-1.1-8.4c0.1-1.9,0.6-3.8,1.1-5.4"/>
		<line class="st0" x1="442.2" y1="285" x2="444" y2="274.9"/>
		<g>
			<path class="st3" d="M420.7,208.2l-9.7,6.7c0,0-0.3,4-0.3,8.2c0,4.3-1.2,7.9,0.9,11.9c2.1,4,6.7,9,10.2,9s7.9-2,10.7-4.1
				c2.8-2.1,4.1-6.2,4.1-6.2s3.8-1.5,3.5-4c-0.3-2.4-0.8-4.1-1.4-4.3c-0.6-0.2-2-0.5-2-0.5l-2-8.2
				C434.7,216.7,423.4,212,420.7,208.2z"/>
			<path class="st0" d="M421.6,218.4v2.3c0,0-3.4,2.7-2,3.8c1.4,1.1,2.1,0.5,2.7,0.3"/>
			<path class="st0" d="M417.7,229.7c0,0,3.7,4,9.1-0.3"/>
			<path class="st0" d="M414,217c0,0,2-2,5.8-1.1"/>
			<path class="st0" d="M424.4,215.8c0,0,3.5-1.5,6.2,1.2"/>
			<path class="st8" d="M418.1,220c0,0.7-0.4,1.3-0.9,1.3c-0.5,0-0.9-0.6-0.9-1.3s0.4-1.3,0.9-1.3S418.1,219.3,418.1,220z"/>
			<path class="st8" d="M428.5,220c0,0.7-0.4,1.3-0.9,1.3c-0.5,0-0.9-0.6-0.9-1.3s0.4-1.3,0.9-1.3
				C428.1,218.7,428.5,219.3,428.5,220z"/>
			<path class="st3" d="M410.6,225c0,0-3-1.7-3.2,1.4c-0.2,3,2.6,5.3,2.6,5.3L410.6,225z"/>
		</g>
		<path class="st3" d="M370.8,222.7c0,0-3-0.9-4.3,1.7c-1.3,2.6,0.9,5.3,2.4,6.3c1.6,1,2.9,0.7,3-1.1c0.1-1.9-1.7-4.3-1.7-4.3
			L370.8,222.7z"/>
		<path class="st3" d="M365.9,226c0,0-2.7,2.2-2.4,3.9c0.3,1.7,3.6,4,5.3,3.9c1.7-0.1,1.1-2.4,1.1-2.4S366.7,228.1,365.9,226z"/>
		<path class="st3" d="M364.4,231.7c0,0-2.2,1.6-1,3.6c1.1,2,4.2,2.6,5.2,1.4c1-1.1,0.3-3,0.3-3S364.5,232.7,364.4,231.7z"/>
		<path class="st3" d="M377,238.5c0,0-1.3-2.2-1.1-4.9c0.1-2.7,2.6-6.2,2.6-6.2s-0.4-1-0.7-2.3c-0.3-1.3-2-6-0.4-8
			c1.6-2,2.9,1.3,3.9,4.3c1,3,1.7,4.6,1.7,4.6s1.1,3.4,0.6,6.2c-0.6,2.7-2.2,7.6-2.2,7.6"/>
	</g>
	<g>
		<g>
			<g>
				<line class="st0" x1="249.1" y1="377.9" x2="333.2" y2="377.9"/>
				<rect x="238.8" y="374.3" class="st4" width="5.7" height="5.7"/>
			</g>
			<g>
				<line class="st0" x1="249.1" y1="390.2" x2="333.2" y2="390.2"/>
				<rect x="238.8" y="386.6" class="st4" width="5.7" height="5.7"/>
			</g>
			<g>
				<line class="st0" x1="249.1" y1="402.5" x2="333.2" y2="402.5"/>
				<rect x="238.8" y="398.9" class="st4" width="5.7" height="5.7"/>
			</g>
			<g>
				<line class="st0" x1="249.1" y1="414.8" x2="333.2" y2="414.8"/>
				<rect x="238.8" y="411.2" class="st4" width="5.7" height="5.7"/>
			</g>
		</g>
		<rect x="173.8" y="309.4" class="st0" width="206.6" height="128.1"/>
		<rect x="173.8" y="309.4" class="st0" width="206.6" height="10.3"/>
		<line class="st0" x1="227.9" y1="320.5" x2="227.9" y2="436.5"/>
		<g>
			<circle class="st0" cx="255.6" cy="346.9" r="17.8"/>
			<path class="st0" d="M261.9,344.9c0,3.5-2.8,6.3-6.3,6.3c-3.5,0-6.3-2.8-6.3-6.3s2.8-6.3,6.3-6.3
				C259.1,338.5,261.9,341.4,261.9,344.9z"/>
			<path class="st0" d="M255.6,364.7c4,0,7.8-1.4,10.8-3.6c-0.9-5.2-5.3-9.1-10.8-9.1s-9.9,3.9-10.8,9.1
				C247.9,363.3,251.6,364.7,255.6,364.7z"/>
		</g>
		<g>
			<circle class="st0" cx="201.3" cy="345.6" r="8.6"/>
			<path class="st0" d="M204.3,344.6c0,1.7-1.4,3.1-3.1,3.1s-3.1-1.4-3.1-3.1s1.4-3.1,3.1-3.1S204.3,342.9,204.3,344.6z"/>
			<path class="st0" d="M201.3,354.2c1.9,0,3.7-0.7,5.2-1.7c-0.4-2.5-2.6-4.4-5.2-4.4c-2.6,0-4.8,1.9-5.2,4.4
				C197.6,353.5,199.4,354.2,201.3,354.2z"/>
		</g>
		<g>
			<circle class="st0" cx="201.3" cy="381.5" r="8.6"/>
			<path class="st0" d="M204.3,380.6c0,1.7-1.4,3.1-3.1,3.1s-3.1-1.4-3.1-3.1s1.4-3.1,3.1-3.1S204.3,378.9,204.3,380.6z"/>
			<path class="st0" d="M201.3,390.1c1.9,0,3.7-0.7,5.2-1.7c-0.4-2.5-2.6-4.4-5.2-4.4c-2.6,0-4.8,1.9-5.2,4.4
				C197.6,389.4,199.4,390.1,201.3,390.1z"/>
		</g>
		<g>
			<circle class="st0" cx="201.3" cy="417.4" r="8.6"/>
			<path class="st0" d="M204.3,416.4c0,1.7-1.4,3.1-3.1,3.1s-3.1-1.4-3.1-3.1s1.4-3.1,3.1-3.1S204.3,414.7,204.3,416.4z"/>
			<path class="st0" d="M201.3,426c1.9,0,3.7-0.7,5.2-1.7c-0.4-2.5-2.6-4.4-5.2-4.4c-2.6,0-4.8,1.9-5.2,4.4
				C197.6,425.4,199.4,426,201.3,426z"/>
		</g>
		<line class="st0" x1="283" y1="336.7" x2="328.2" y2="336.7"/>
		<line class="st0" x1="283" y1="347.1" x2="328.2" y2="347.1"/>
		<line class="st0" x1="283" y1="357.4" x2="328.2" y2="357.4"/>
	</g>
	<g>
		<g>
			<ellipse class="st13" cx="187.5" cy="225.3" rx="15.4" ry="15.4"/>
			<line class="st14" x1="196.2" y1="239" x2="212.8" y2="261.3"/>
		</g>
		<g>
			<path class="st3" d="M169.1,213.8c0,0,1,3.1,0.9,6.3c-0.2,3.1,0.2,7.7,1,8.4c0.9,0.7,3.3,2.4,2.6,3.8c-0.7,1.4-2.3,2.1-2.3,2.1
				s-0.9,4.5-2.6,7.8c-1.7,3.3-3,5.6-5,5.7c-2.1,0.2-3.3-0.3-3.3-0.3l-2.3,2.3l-17.1-3.7l0.5-7.7c0,0-5.2-8.9-5.2-17.8
				s9.2-14.2,14.5-14.5C156.2,205.6,166.3,207.9,169.1,213.8z"/>
			<path class="st12" d="M173.6,209.5c0,0,0.3,2.3-1.4,4.9s-6.4,3.5-6.4,3.5s-0.2,3.8-1.2,5.4c-1,1.6-3.5,2.8-3.5,2.8
				s-3.5,0.3-2.4,4.2c1,3.8,1.9,4.4,0.2,7.5c-1.7,3.1-12,7.3-15.4,4.9c-3.5-2.4-6.1-3.7-8.2-11c-2.1-7.3-4.2-17.5,1.7-24.4
				c5.9-7,19.2-5.2,19.2-5.2s-3.5-3.3,1.4-3.1c4.9,0.2,8.2,3.7,8.2,3.7s0.5-3.5,3.1-2.6C171.5,200.6,173.3,207.5,173.6,209.5z"/>
			<path class="st3" d="M162.5,228.5c0,0-3-5.6-5.2-3.5c-2.3,2.1,0,13.2,3.8,11.1"/>
			<line class="st0" x1="161.1" y1="225.9" x2="175.1" y2="225.9"/>
			<path class="st0" d="M169.4,222.5c0.9-0.4,1.9-0.5,2.9-0.2c1.6,0.4,2.8,1.7,3.2,3.3c0.4,1.9-0.3,3.6-1.7,4.6"/>
		</g>
		<path class="st3" d="M162.1,254.7c0,0,0-3.9-5.1-6.8c-5.1-2.9-15.2-6.8-19.8-6.3s-7.3,7-7.3,7s18.1,1.7,22.5,2.7
			C156.7,252.3,162.1,254.7,162.1,254.7z"/>
		<g>
			<path class="st3" d="M86.1,279.9c0,0-5.8,6.8-13.5,16.4c-7.8,9.7-14,19.6-14,19.6s-7.3,6.3-8.3,9s-3.4,10.5-4.4,12.6
				c-1,2.2,3.4-0.7,4.1-2.4c0.7-1.7,1.5-2.9,1.5-2.9l6.3-2.9c0,0-1.9,4.9,0,5.6s2.2-2.7,4.4-5.3c2.2-2.7,4.1-4.6,4.4-7.8
				c0.2-3.2,0-6.6,0-6.6l31-20.1L86.1,279.9z"/>
			<path class="st0" d="M51.4,332.2l2.9-4.3c0,0,2-0.5,3.9-1.7c1.9-1.2,2.8-2.5,2.8-2.5"/>
		</g>
		<path class="st3" d="M191.3,270.5l7.9-16.5c0,0,1.4-6.4,1.9-7.3c0.5-1,3.8-6.1,5-6.2c1.2-0.1,2.4,0.4,2.6,1.5
			c0.1,1.1-0.4,1.9-0.4,1.9s1.8,0.8,3.1,2.6c1.4,1.8,1.4,3.1,1.6,4.2c0.3,1.1,1.2,1.2,0.1,3.5c-1.1,2.3-2.9,3-3.8,3.7
			c-1,0.7-3.3,1.8-3.3,1.8s-0.1,15.5-2,21.6s-3.3,8.1-3.3,8.1s-3.3-11.1-5.2-13.3C193.7,273.9,191.3,270.5,191.3,270.5z"/>
		<path class="st12" d="M96.6,315.5c0,0-10.4,26.6-12.1,32.9c-1.8,6.2-6,18.8-7.8,34.8c-1,9.4,0.1,19.5,0.1,19.5s-3.6,6.8-7.4,17.1
			c-3.9,10.4-16.8,61.6-16.8,61.6s2.4,3.6,7.7,2.7c5.3-0.9,5.3-0.9,5.3-0.9s1.8,0.3,3.9-0.3c2.1-0.6,6.8-0.3,7.1-2.4
			c0.3-2.1-1.2-2.7-3-4.7c-1.8-2.1-4.4-8.6-4.4-8.6s14.7-25.9,20.1-35.4c5.3-9.5,12.8-27.1,13.1-29.8c0.3-2.7,15-41.7,15-41.7h3.3
			l23.3,39.1c0,0-0.9,15.6,1.8,24.8c2.7,9.2,8.9,43.7,8.9,43.7l-0.6,6.2c0,0,1.2,3,1.2,3.9s0,3.3,0,3.3s0.9,2.1,6.8,2.1
			c2.7,0,11.6-0.9,13-1.2s12.7-0.6,13-2.1c0.3-1.5,0.6-2.7-1.2-3.3c-1.8-0.6-14.4-6.5-14.4-6.5V465c0,0-2.4-1.8-3-3.6
			c-0.6-1.8,0.6-49.3,0-57.6c-0.6-8.3,0.3-8.3-2.1-15.6c-2.4-7.4-11.8-59.2-11.8-59.2l-4.8-8.3l-50.2-10.4L96.6,315.5z"/>
		<g>
			<path class="st3" d="M188.5,271c0,0,1-3.2,5.1-1.7c4.1,1.5,10.5,13.3,9,19.6c-1.5,6.3-5.3,8.5-8.8,8.3c-3.4-0.2-7.5-4.4-6.6-4.9
				C188.2,291.8,188.5,271,188.5,271z"/>
			<path class="st3" d="M98.8,268.1c0,0-1.7,0-4.1-0.2c-2.4-0.2-5.8,3.9-7.8,6.3c-1.9,2.4-4.4,3.9-2.7,9c1.7,5.1,6.3,11.7,13.1,12.2
				c6.8,0.5,10.7-3.2,10.7-3.2L98.8,268.1z"/>
			<path class="st9" d="M129.8,248.7c0,0-3.9-0.5-12.2,4.1c-8.3,4.6-25.9,18.9-27.1,21.3c-1.2,2.4,2.2,13.3,6.6,15.2
				c4.4,1.9,8.3,0.5,8.3,0.5l-8.8,25.7c0,0,9.7-0.5,25.9,2.4c16.2,2.9,33,11.2,33,11.2s1.2-0.2,1.5-3.4c0.2-3.2,1.2-5.1,1.9-6.6
				c0.7-1.5,10-32.7,10-32.7s18.1,8,23,8c4.9,0,6.6-8.8,4.6-15.2c-1.9-6.6-6.1-8.5-6.1-8.5s-5.6-1.7-10.2-5.6
				c-4.6-3.9-18.1-10.5-18.1-10.5S142.7,246.5,129.8,248.7z"/>
			<polyline class="st0" points="161.8,281.4 168.9,286.5 159.6,284.3 			"/>
			<line class="st0" x1="113.6" y1="264.3" x2="114.9" y2="260.3"/>
			<line class="st0" x1="105.4" y1="289.9" x2="112.4" y2="268.1"/>
		</g>
	</g>
</g>
</svg>
