<?xml version="1.0" encoding="utf-8"?>
<!-- Generator: Adobe Illustrator 24.0.3, SVG Export Plug-In . SVG Version: 6.00 Build 0)  -->
<svg version="1.1" id="Layer_1" xmlns="http://www.w3.org/2000/svg" xmlns:xlink="http://www.w3.org/1999/xlink" x="0px" y="0px"
	 viewBox="0 0 90 90" style="enable-background:new 0 0 90 90;" xml:space="preserve">
<style type="text/css">
	.st0{fill:none;stroke:#071F2C;stroke-width:2.1354;stroke-miterlimit:10;}
	.st1{fill:#32ACBF;}
	.st2{fill:#071F2C;}
</style>
<title></title>
<g>
	<g>
		<g>
			<path class="st0" d="M59.3,28.8c-8.4-7.6-21.4-7.3-29.5,0.8c-6.3,6.3-7.8,15.5-4.7,23.3"/>
			<path class="st0" d="M29.9,60l-6.2,11h-4.8v-4.8L29.9,60c8.9,9,23.8,8.4,31.9-1.8c3.1-3.9,4.6-8.6,4.6-13.4"/>
		</g>
		<g>
			<g>
				<path class="st1" d="M71.1,18.9l-0.7,3.4c-1.3,6.3-4,12.3-7.7,17.5l-1.3-0.8l0,2.5c-1.2,1.5-2.4,2.9-3.8,4.3l0,0
					c-1.9,1.8-3.9,3.5-6,4.9l-1.9-2.6L49,52.3c-5.3,2.9-11.2,4.4-17.3,4.6c1-10.2,9.2-17.1,16.1-20.8C56.3,31.4,64.3,25.8,71.1,18.9
					z"/>
				<g>
					<path class="st2" d="M71.1,18.9c-0.2,0.8-0.2,1.8-0.3,2.8c-0.1,1-0.3,1.9-0.4,2.9c-0.3,1.9-0.8,3.8-1.4,5.6
						c-0.6,1.8-1.2,3.7-2.2,5.3c-0.9,1.7-2,3.3-3.1,4.9l-0.6,0.8l-0.8-0.5L60.9,40l1.6-0.9l0,2.5l0,0.4l-0.2,0.3
						c-2.8,3.6-6.2,6.9-10.1,9.4l-0.9,0.5l-0.6-0.8l-1.9-2.6l1.9-0.4l-0.7,4.1L50,53l-0.5,0.2c-5.4,3-11.6,4.6-17.8,4.7l-1.2,0
						l0.1-1.2c0.5-4.9,2.7-9.6,6-13.2c3.2-3.7,7.2-6.5,11.4-8.8c4.1-2.2,8-4.8,11.8-7.5C63.8,24.8,67.5,21.9,71.1,18.9z M71.1,18.9
						c-3,3.6-6.5,6.9-10.1,10c-3.8,2.8-7.8,5.4-12,7.7c-4.1,2.2-7.9,4.9-10.8,8.3c-3,3.4-5,7.6-5.4,12.1l-1.1-1.2
						c5.8-0.1,11.7-1.6,16.8-4.4L48,52.1l0.7-4.1l0.4-2.5l1.5,2l1.9,2.6L51,49.8c3.7-2.4,6.9-5.5,9.6-9l-0.2,0.7l0-2.5l0-1.9l1.6,1
						l1.3,0.8l-1.4,0.3c1.1-1.5,2.1-3.1,2.9-4.7c0.8-1.7,1.8-3.2,2.6-4.9c0.8-1.7,1.5-3.4,2.1-5.2c0.3-0.9,0.6-1.8,0.8-2.7
						C70.6,20.9,70.9,19.9,71.1,18.9z"/>
				</g>
			</g>
			<g>
				<path class="st2" d="M71.1,18.9c-0.4,1.1-0.8,2.2-1.3,3.2c-0.5,1.1-1.1,2.1-1.7,3.1c-1.2,2-2.5,3.9-4.1,5.7
					c-3,3.6-6.7,6.6-10.8,9.1c-2,1.2-4.1,2.2-6,3.4c-1.9,1.1-3.7,2.6-5.4,4c-3.5,3-6.6,6.4-10.1,9.4c2.9-3.6,5.6-7.4,9-10.7
					c1.7-1.7,3.5-3.2,5.5-4.5c2-1.3,4.1-2.3,6-3.5c2-1.1,3.8-2.4,5.6-3.8c1.8-1.4,3.5-2.9,5.1-4.5c1.6-1.6,3-3.4,4.4-5.2
					c0.7-0.9,1.4-1.8,2-2.8C70,20.9,70.6,19.9,71.1,18.9z"/>
			</g>
		</g>
	</g>
</g>
</svg>
